<svg xmlns="http://www.w3.org/2000/svg" xmlns:xlink="http://www.w3.org/1999/xlink" viewBox="0 0 826 228.1"><defs><style>.a{fill:none;}.b{fill:#fff;}.c{fill:#ff7f3e;}.d{clip-path:url(#a);}.e{clip-path:url(#b);}.f{fill:#212121;}.g{clip-path:url(#c);}.h{clip-path:url(#d);}</style><clipPath id="a"><circle class="a" cx="127.59" cy="204.83" r="10.55"/></clipPath><clipPath id="b"><path class="a" d="M129.84,220.94a8.92,8.92,0,0,0-.53-13.15c-2.74-2.47-6.69-3.44-10.45-4.22-3.4-.71-7-1.41-9.81-3.18,1.66,5.35-2.13,10.2,1.14,17.23a12.51,12.51,0,0,0,17.59,4.94A7.51,7.51,0,0,0,129.84,220.94Z"/></clipPath><clipPath id="c"><path class="a" d="M140,198.43c-.23,2.7-2.75,4.76-5.36,6.12-1.64.86-3.41,1.58-5,2.48l.27.24a9.93,9.93,0,0,1,2.26,11.93,9.8,9.8,0,0,1-1.66,2.23,8.44,8.44,0,0,1-1.92,1.59,14.21,14.21,0,0,0,7,.44,12.37,12.37,0,0,0,7.33-4.36,12.86,12.86,0,0,0,2.47-8.8A19,19,0,0,0,140,198.43Z"/></clipPath><clipPath id="d"><path class="a" d="M119.05,202.46c3.52.74,7.15,1.63,9.94,3.68,1-.58,2.06-1.08,3.11-1.57.7-.34,1.44-.68,2.12-1,.41-.21.84-.46,1.27-.73a13,13,0,0,0,.38-2.31c.35-5.27-2.52-10.66-7.26-14.46a2.44,2.44,0,0,0-1.47-.67,2.3,2.3,0,0,0-1.2.44c-4.72,2.95-7.63,7.68-7.72,12.59a16.88,16.88,0,0,0,.4,4h.09Z"/></clipPath></defs><path class="b" d="M149.53,11C132.31-3.23,83.31,0,71.2,1.08H28.68V3.24A15.79,15.79,0,0,1,39.31,7a112.88,112.88,0,0,1,19.95-1.7A289.43,289.43,0,0,1,90.63,6.83s43.61,2.32,49.43,29.44l.12.6c0,.28.11.56.15.84,4.45,27.85-10.15,45.25-10.8,46-11.64,12.45-26.83,20.85-41.61,25.61a103.5,103.5,0,0,1-12.41,3.19v-8.83a271.78,271.78,0,0,1-25-12.24V144c-1.08,35.26-11.31,43.07-21.8,43.07v2.15H97.31v-2.15c-10.5,0-20.46-7.81-21.8-42.53V115.75A176.13,176.13,0,0,0,93.27,112c18.74-4.9,35.2-12.23,45.5-18.62C174.84,71.07,175.11,32,149.53,11Z"/><path class="c" d="M93.27,112q-2.56-1.35-5.35-2.7-5-2.42-10.67-4.88c-.59-.25-1.17-.5-1.74-.76a271.78,271.78,0,0,1-25-12.24C26.74,78,23,68.46,23,60l.39-5.58s4.45-20.74,29.38-25.12c0,0-45.11-3.61-52.53,40.73-.53,3.71-4.44,31.1,50.22,51.21.92.34,1.86.68,2.81,1a170.74,170.74,0,0,1,22.22,9.5c30.66,16,34.49,33.46,34,42.18-.81,22.35-23.42,49.53-74.56,27.73C11.3,191.4,5.91,157.75,5.65,154.25H3c0,15.89-1.07,33.38-.8,49,3.76-.81,3.76-1.35,10.76,1.88,54.38,25.57,108-.81,115-34.46C132.83,147,128,130.2,93.27,112Z"/><g class="d"><g class="e"><path class="f" d="M128,215.43a6.88,6.88,0,0,1-1.27-.64c-.76-.46-1.81-1-2.95-1.79a1.57,1.57,0,0,1-.34-.42l-.06-.13a.51.51,0,0,1,0-.22.26.26,0,0,1,.32-.21,3.56,3.56,0,0,1,.92.29,5,5,0,0,1,1.3.88,3.78,3.78,0,0,1,.9,1.11s-.39-.39-1-.94a5.35,5.35,0,0,0-1.26-.79,3.71,3.71,0,0,0-.81-.24h0a.41.41,0,0,0,0,.11,1.44,1.44,0,0,0,.28.33C126.16,214.2,128,215.34,128,215.43Z"/><path class="f" d="M123.73,211.52s.25-.09.65,0a3.78,3.78,0,0,1,1.35.77,7.42,7.42,0,0,1,1.55,1.51,7.93,7.93,0,0,1-1.74-1.26,4.84,4.84,0,0,0-1.23-.81C124,211.59,123.73,211.57,123.73,211.52Z"/><path class="f" d="M121.08,209.38a4,4,0,0,1,1.1.27,16.26,16.26,0,0,1,2.53,1,8.69,8.69,0,0,1,2.24,1.59,2.61,2.61,0,0,1,.67.92,10.21,10.21,0,0,1-.82-.76,11,11,0,0,0-2.23-1.47C122.69,210,121,209.48,121.08,209.38Z"/><path class="f" d="M124.83,216.71a4.17,4.17,0,0,1-1.38-.58,14.46,14.46,0,0,1-2.9-2.16,7.21,7.21,0,0,1-1.32-1.53,2,2,0,0,1-.21-1.65,1.45,1.45,0,0,1,.77-.82.66.66,0,0,1,.41-.08s-.14.06-.35.18a1.41,1.41,0,0,0-.62.79,1.81,1.81,0,0,0,.25,1.44,7.35,7.35,0,0,0,1.29,1.44,19.09,19.09,0,0,0,2.79,2.21C124.33,216.43,124.85,216.67,124.83,216.71Z"/><path class="f" d="M124.62,215.37a11,11,0,0,0-1.14-.44,5.92,5.92,0,0,1-2.61-1.53,4.46,4.46,0,0,1-.93-1.42,1.29,1.29,0,0,1,.2-1.39,1.1,1.1,0,0,1,.91-.29c.23,0,.32.16.31.17s-.12,0-.32-.05a1,1,0,0,0-.74.32,1.07,1.07,0,0,0-.09,1.14,4.53,4.53,0,0,0,.88,1.3,6.64,6.64,0,0,0,2.46,1.55C124.28,215,124.66,215.34,124.62,215.37Z"/><path class="f" d="M121.62,213s-.2-.14-.43-.42a2.08,2.08,0,0,1-.36-.56,1,1,0,0,1,0-.88.9.9,0,0,1,.77-.44,1.47,1.47,0,0,1,.66.09c.36.11.57.2.56.24s-.25,0-.59,0-.91-.09-1.13.29.08.87.26,1.17S121.65,213,121.62,213Z"/><path class="f" d="M130.06,216.33s-.18.27-.61.55a1.87,1.87,0,0,1-.88.29,3.33,3.33,0,0,1-1.11-.13,6.39,6.39,0,0,1-2.53-1.13c0-.08,1.15.46,2.61.83A3.08,3.08,0,0,0,130.06,216.33Z"/><path class="f" d="M129.23,213.51s-.36-.42-1-1.07l-1.09-1.14a8.82,8.82,0,0,0-1.44-1.24,10.69,10.69,0,0,0-3.2-1.3,9.23,9.23,0,0,1-1.41-.39,5.33,5.33,0,0,1,1.45.17,9.47,9.47,0,0,1,3.33,1.26,7.91,7.91,0,0,1,1.47,1.31c.41.44.77.83,1.06,1.18A4,4,0,0,1,129.23,213.51Z"/><path class="f" d="M130.78,216.83c.05,0,0,.4-.52.66a3.84,3.84,0,0,1-2,.2,4.89,4.89,0,0,1-2.74-.73,17.82,17.82,0,0,0,2.76.42,4.6,4.6,0,0,0,1.91-.08A1.75,1.75,0,0,0,130.78,216.83Z"/><path class="f" d="M126.14,218.08a18.24,18.24,0,0,1,2.18.31,6.54,6.54,0,0,0,2.14-.22s-.17.21-.57.35a3.84,3.84,0,0,1-1.6.18A5.09,5.09,0,0,1,126.14,218.08Z"/><path class="f" d="M121,214.85a3,3,0,0,1-1.08-.58A6,6,0,0,1,118,212a2.15,2.15,0,0,1-.1-1.68,2.12,2.12,0,0,1,.89-1A1.65,1.65,0,0,1,120,209a5.46,5.46,0,0,0-1.08.47,2,2,0,0,0-.74.95,1.86,1.86,0,0,0,.12,1.45A8.28,8.28,0,0,0,121,214.85Z"/><path class="f" d="M125.49,217.93A4.16,4.16,0,0,1,123,217a7.35,7.35,0,0,1-1.92-1.82,26.09,26.09,0,0,1,2.09,1.57A14.11,14.11,0,0,0,125.49,217.93Z"/><path class="f" d="M129.77,213.44s.4.25.37.9a3.44,3.44,0,0,1-.2,1.06,1.22,1.22,0,0,1-.39.56,1.26,1.26,0,0,1-.7.22,6.2,6.2,0,0,1-2.28-.6c-.54-.25-.84-.47-.82-.51a14.08,14.08,0,0,0,3.08.8c.9,0,1-1,1.09-1.54A1.74,1.74,0,0,0,129.77,213.44Z"/><path class="f" d="M128.77,214.13c-.06.05-.29-.07-.51-.28s-.35-.43-.3-.5.28.06.52.28S128.84,214.07,128.77,214.13Z"/><path class="f" d="M128.65,215.5a1,1,0,0,0-.3-.75c-.32-.37-.66-.63-.61-.7s.47.07.84.49a.85.85,0,0,1,.26.7C128.81,215.45,128.68,215.52,128.65,215.5Z"/><path class="f" d="M131.65,217.69a.91.91,0,0,1-.13.33,2.2,2.2,0,0,1-.7.73,5.58,5.58,0,0,1-3.64.57c-3.13-.33-7.26-2.67-9.77-6.82a3.86,3.86,0,0,1-.6-1.71,2.08,2.08,0,0,1,.6-1.67,5.57,5.57,0,0,1,1.36-1,3.36,3.36,0,0,1,1.59-.36,12,12,0,0,1,5.32,1.37,9,9,0,0,1,2.84,2.37,6.69,6.69,0,0,1,.54.85,1.33,1.33,0,0,1,.15.32s-.24-.42-.79-1.09a9,9,0,0,0-2.85-2.25,11.76,11.76,0,0,0-5.21-1.28,3.78,3.78,0,0,0-2.73,1.29,1.83,1.83,0,0,0-.52,1.45,3.81,3.81,0,0,0,.56,1.58c2.46,4.05,6.5,6.38,9.54,6.75a5.63,5.63,0,0,0,3.54-.45A2.48,2.48,0,0,0,131.65,217.69Z"/><path class="f" d="M125.33,214.71a1.84,1.84,0,0,1-.86-.18,12.56,12.56,0,0,1-1.88-.94,2.36,2.36,0,0,1-.85-.87.9.9,0,0,1,.05-1,.76.76,0,0,1,.65-.22c.17,0,.23.11.22.12a.77.77,0,0,0-.7.25.69.69,0,0,0,0,.74,2.49,2.49,0,0,0,.77.74c.67.41,1.33.76,1.8,1A5.16,5.16,0,0,1,125.33,214.71Z"/><path class="f" d="M129.74,220.22s-.07,0-.22,0a5.8,5.8,0,0,1-.63,0,13.11,13.11,0,0,1-2.32-.24,14.07,14.07,0,0,1-6.84-3.35,11.31,11.31,0,0,1-2.82-3.17,8.64,8.64,0,0,1-1-3.32,2.35,2.35,0,0,1,.91-2.11,1.35,1.35,0,0,1,.81-.3,2.83,2.83,0,0,0-.74.39,2.27,2.27,0,0,0-.76,2,8.91,8.91,0,0,0,1,3.19,11.17,11.17,0,0,0,2.77,3.07,14.54,14.54,0,0,0,6.69,3.38A26.47,26.47,0,0,0,129.74,220.22Z"/><path class="f" d="M124,208.31c0,.09-1.28-.25-2.84-.52a20.25,20.25,0,0,0-2.85-.18,5.23,5.23,0,0,1,2.9-.13A9.15,9.15,0,0,1,124,208.31Z"/><path class="f" d="M129.49,221.27a1.54,1.54,0,0,1-.37.08c-.25.05-.61.1-1.09.15a15.49,15.49,0,0,1-4-.19,9.9,9.9,0,0,1-2.66-.86,10.37,10.37,0,0,1-2.61-1.88,18,18,0,0,1-2.27-2.72,26.92,26.92,0,0,1-2-3.24,6.46,6.46,0,0,1-.5-3.78,3.82,3.82,0,0,1,.69-1.72,2.58,2.58,0,0,1,1.57-.86,13,13,0,0,1,6,.51,12.68,12.68,0,0,1,3.6,1.8,9.93,9.93,0,0,1,.85.69c.19.17.28.27.27.28s-.4-.34-1.19-.87a13.22,13.22,0,0,0-3.6-1.69,13,13,0,0,0-5.83-.44,2.32,2.32,0,0,0-1.39.76,3.54,3.54,0,0,0-.62,1.59,6.19,6.19,0,0,0,.48,3.6,27.53,27.53,0,0,0,2,3.19,17.66,17.66,0,0,0,2.22,2.7,9.75,9.75,0,0,0,5.12,2.73,16.19,16.19,0,0,0,4,.27c.48,0,.84-.05,1.09-.08A2.17,2.17,0,0,1,129.49,221.27Z"/><path class="f" d="M118.61,218.11c.07-.1,1,.68,2.26,1.18.66.23,1.29.4,1.72.61s.65.43.63.46-.28-.11-.71-.25-1.06-.28-1.75-.53a5.67,5.67,0,0,1-1.6-.93C118.79,218.35,118.58,218.15,118.61,218.11Z"/><path class="f" d="M116.55,214a1.7,1.7,0,0,1,.37.32,8.64,8.64,0,0,1,.87,1c.35.44.66,1.08,1,1.67a5.4,5.4,0,0,0,1.88,1.39,26.13,26.13,0,0,0,4,1.68,14.47,14.47,0,0,1,1.73.6,8.64,8.64,0,0,1-1.79-.39,20.62,20.62,0,0,1-4.13-1.61,5.44,5.44,0,0,1-2-1.5c-.42-.66-.68-1.26-1-1.72C117,214.54,116.51,214,116.55,214Z"/><path class="f" d="M119.42,207.21a6.64,6.64,0,0,1-1.41.08,5.7,5.7,0,0,0-1.46.11,1.83,1.83,0,0,0-1,1.38,3.76,3.76,0,0,0-.21,1.77,9.6,9.6,0,0,0,.47,1.43,5.89,5.89,0,0,1,.45,1.34,6.78,6.78,0,0,1-.65-1.26,7.62,7.62,0,0,1-.55-1.45,3.94,3.94,0,0,1,.19-1.91,1.77,1.77,0,0,1,2-1.66l.71,0A6.51,6.51,0,0,1,119.42,207.21Z"/><path class="f" d="M129.89,220.66s-.24.27-.76.49a5.1,5.1,0,0,1-2.15.34,8.6,8.6,0,0,1-2.12-.4,2.4,2.4,0,0,1-.82-.35c0-.11,1.32.34,3,.44a6.4,6.4,0,0,0,2.06-.24A7.75,7.75,0,0,1,129.89,220.66Z"/><path class="f" d="M130.46,211.66a3.62,3.62,0,0,1-.45-.49l-1.15-1.37a10,10,0,0,0-4.9-3.05c-1.09-.37-2.16-.63-3.13-.87a10.1,10.1,0,0,0-2.6-.43c-1.49.07-2.4.39-2.42.32a2.84,2.84,0,0,1,.63-.22,8.71,8.71,0,0,1,1.79-.32,9.58,9.58,0,0,1,2.66.37,32.26,32.26,0,0,1,3.17.85,12.48,12.48,0,0,1,3,1.38l.62.41a4.72,4.72,0,0,1,.51.48,6.36,6.36,0,0,1,.84.93l1.08,1.45A2.36,2.36,0,0,1,130.46,211.66Z"/><path class="f" d="M130.62,213.06a13.62,13.62,0,0,0-2-2.61c-1.32-1.27-2.53-2.18-2.46-2.26s.35.16.84.51a15.51,15.51,0,0,1,1.84,1.53A5.61,5.61,0,0,1,130.62,213.06Z"/><path class="f" d="M129.82,221.83s0,.06-.17.13a2.46,2.46,0,0,1-.59.25,11.44,11.44,0,0,1-2.27.32,13.54,13.54,0,0,1-7.41-1.34,9,9,0,0,1-3.08-2.83,30.69,30.69,0,0,1-1.83-2.88,8.45,8.45,0,0,1-.84-2.14,3.26,3.26,0,0,1-.11-.62.92.92,0,0,1,0-.22,7.76,7.76,0,0,1,.23.81,10.17,10.17,0,0,0,.93,2.07,29.31,29.31,0,0,0,1.86,2.81,8.83,8.83,0,0,0,3,2.73,14,14,0,0,0,7.24,1.4,14.87,14.87,0,0,0,2.26-.22C129.55,222,129.8,221.8,129.82,221.83Z"/><path class="f" d="M124.74,221.5a4.35,4.35,0,0,1-1.52-.08,10.11,10.11,0,0,1-3.41-1.33,15.2,15.2,0,0,1-2.86-2.28,2.53,2.53,0,0,1-.84-1.27,7.34,7.34,0,0,0,1,1.11,19.48,19.48,0,0,0,2.87,2.17,11.67,11.67,0,0,0,3.3,1.38C124.16,221.42,124.74,221.44,124.74,221.5Z"/><path class="f" d="M115.84,216a8.1,8.1,0,0,1-1.21-1.93,8.46,8.46,0,0,1-.93-2.07,8,8,0,0,1,1.2,1.92A9,9,0,0,1,115.84,216Z"/><path class="f" d="M115.15,206c0,.05-.32.21-.69.66a5.53,5.53,0,0,0-.92,2,7.51,7.51,0,0,0-.3,2.26c0,.58.12.94.08,1s-.22-.32-.3-.93a6,6,0,0,1,.22-2.36,4.74,4.74,0,0,1,1.06-2.12C114.74,206,115.14,205.92,115.15,206Z"/><path class="f" d="M129.73,222.61s-.08.06-.25.14a7.21,7.21,0,0,1-.79.3,9.7,9.7,0,0,1-3,.36,20.35,20.35,0,0,1-4.5-.72,15.34,15.34,0,0,1-2.58-.82,6.43,6.43,0,0,1-2.28-1.82,17.25,17.25,0,0,1-3-4.68,9.72,9.72,0,0,1-.77-4.49,15.08,15.08,0,0,1,.63-3l.26-.8a1.75,1.75,0,0,1,.11-.27,6.32,6.32,0,0,1-.25,1.1,16.79,16.79,0,0,0-.53,3,9.72,9.72,0,0,0,.82,4.37,17.22,17.22,0,0,0,3,4.59,6.37,6.37,0,0,0,2.18,1.75,15.36,15.36,0,0,0,2.52.81,21.75,21.75,0,0,0,4.44.79,10.29,10.29,0,0,0,3-.27C129.36,222.75,129.72,222.59,129.73,222.61Z"/><path class="f" d="M131.19,210.82c-.06,0-.58-1.08-1.79-2.58a11.53,11.53,0,0,0-6.5-3.52,25.21,25.21,0,0,0-4.13-.5,7.17,7.17,0,0,0-3.3.46,3.5,3.5,0,0,0-1.63,1.5c-.27.47-.36.76-.39.75a.73.73,0,0,1,0-.22,3.75,3.75,0,0,1,.23-.58,3.49,3.49,0,0,1,1.65-1.64,7.06,7.06,0,0,1,3.4-.56,24,24,0,0,1,4.19.49,11.3,11.3,0,0,1,6.6,3.68,12.17,12.17,0,0,1,1.26,2A3.41,3.41,0,0,1,131.19,210.82Z"/><path class="f" d="M128.8,208.47c-.1.2-2.38-2.47-6.36-3.38a13.91,13.91,0,0,0-5.09-.22c-1.3.19-2.08.47-2.1.42a1.83,1.83,0,0,1,.54-.23,9.29,9.29,0,0,1,1.53-.4,12.52,12.52,0,0,1,9.89,2.36c.52.42.91.79,1.19,1A2.57,2.57,0,0,1,128.8,208.47Z"/><path class="f" d="M126,206.9a15.93,15.93,0,0,1-2-.69,14.47,14.47,0,0,1-2-.7,7.68,7.68,0,0,1,4.1,1.39Z"/><path class="f" d="M130,216a9.72,9.72,0,0,0,.76-2,9.55,9.55,0,0,0,0-2.14,2.9,2.9,0,0,1,.32,2.2A3,3,0,0,1,130,216Z"/><path class="f" d="M130.58,217.18a5.74,5.74,0,0,0,.9-2.76,20.64,20.64,0,0,0-.37-2.95,2.29,2.29,0,0,1,.36.82,6.27,6.27,0,0,1,.32,2.14,4.21,4.21,0,0,1-.6,2.09C130.89,217,130.61,217.21,130.58,217.18Z"/><path class="f" d="M131.66,211.94a4.79,4.79,0,0,1,.57,2.85,8.19,8.19,0,0,1-.52,2.85c-.1,0,.13-1.29.21-2.86A14.21,14.21,0,0,0,131.66,211.94Z"/><path class="f" d="M131.59,210a1.5,1.5,0,0,1-.2-.33l-.49-1-1.77-3.57a13.08,13.08,0,0,0-3.47-4.65,7.62,7.62,0,0,0-3.08-1.44,23.89,23.89,0,0,0-3.69-.44,44.38,44.38,0,0,0-7.2,0,21.49,21.49,0,0,0-5.72,1.29,15,15,0,0,0-3.47,1.87c-.76.56-1.13.93-1.15.91a2.3,2.3,0,0,1,.26-.28,7.55,7.55,0,0,1,.81-.72,13.93,13.93,0,0,1,3.47-2,20.9,20.9,0,0,1,5.77-1.37,41.65,41.65,0,0,1,7.25,0,23.9,23.9,0,0,1,3.74.46,7.7,7.7,0,0,1,3.18,1.51,13.16,13.16,0,0,1,3.5,4.77l1.68,3.62.44,1A1.77,1.77,0,0,1,131.59,210Z"/><path class="f" d="M120,199a2.73,2.73,0,0,1-.77,0l-2.08,0a31.6,31.6,0,0,0-6.82.25,32.54,32.54,0,0,0-6.41,2.33,5,5,0,0,0-1.67,1.16,5.35,5.35,0,0,0-.42.62,1.51,1.51,0,0,1,.32-.7,4.91,4.91,0,0,1,1.67-1.28,28.82,28.82,0,0,1,6.45-2.43,27.74,27.74,0,0,1,6.89-.17l2.08.13A3.64,3.64,0,0,1,120,199Z"/><path class="f" d="M128.9,205a14.94,14.94,0,0,1-.8-1.3,10.38,10.38,0,0,0-2.65-2.48,10.84,10.84,0,0,0-3.21-1.68c-.9-.28-1.49-.3-1.48-.35a3.59,3.59,0,0,1,1.53.14,9.4,9.4,0,0,1,3.34,1.64,9.13,9.13,0,0,1,2.65,2.61A4.88,4.88,0,0,1,128.9,205Z"/><path class="f" d="M111.53,200a5.08,5.08,0,0,1,1.39-.33,25.86,25.86,0,0,1,3.43-.3,25.29,25.29,0,0,1,3.44.18,5.34,5.34,0,0,1,1.4.27,8.42,8.42,0,0,1-1.42-.06c-.87-.05-2.08-.1-3.41-.08s-2.54.12-3.41.21A8.49,8.49,0,0,1,111.53,200Z"/><path class="f" d="M102.16,204.12a1.92,1.92,0,0,1,.51-1.25,5.3,5.3,0,0,1,2.75-1.71c1.23-.36,2.36-.5,3.16-.67a8.39,8.39,0,0,1,1.31-.24,4,4,0,0,1-1.26.46c-.8.22-1.93.39-3.12.75a5.49,5.49,0,0,0-2.67,1.55A5.61,5.61,0,0,0,102.16,204.12Z"/><path class="f" d="M131.14,209.44a1.75,1.75,0,0,1-.21-.28l-.52-.83c-.46-.75-1.11-1.8-1.89-3.09a8.67,8.67,0,0,0-1.54-1.91,13.44,13.44,0,0,0-2.36-1.57,11.29,11.29,0,0,0-2.91-1.13,14.52,14.52,0,0,0-3.34-.31,47,47,0,0,0-6.54.27,20.26,20.26,0,0,0-5.16,1.28,13,13,0,0,0-3.12,1.76,4.62,4.62,0,0,0-.9,1,1.33,1.33,0,0,1,.16-.31,3.12,3.12,0,0,1,.66-.74,11.94,11.94,0,0,1,3.11-1.87,20.2,20.2,0,0,1,5.21-1.37,46.08,46.08,0,0,1,6.58-.29,15.24,15.24,0,0,1,3.41.32,12.34,12.34,0,0,1,3,1.17,13.4,13.4,0,0,1,2.39,1.64,8,8,0,0,1,1.55,2l1.81,3.13.48.87A2.72,2.72,0,0,1,131.14,209.44Z"/><path class="f" d="M123.51,200.3c0,.08-.49,0-1.05-.07s-1-.29-1-.38.49,0,1,.07S123.53,200.21,123.51,200.3Z"/><path class="f" d="M129.12,206.84s-.1-.05-.25-.17-.37-.32-.63-.59c-.54-.52-1.21-1.37-2.12-2.33a8.53,8.53,0,0,0-3.89-2.36,17.44,17.44,0,0,0-5.62-.56,36.14,36.14,0,0,0-5.66.54,21.93,21.93,0,0,0-4.32,1.66,10.5,10.5,0,0,0-2.69,1.57,5.34,5.34,0,0,0-.72.89,2.43,2.43,0,0,1,.64-1,9.63,9.63,0,0,1,2.67-1.69,21.59,21.59,0,0,1,4.36-1.74,34.6,34.6,0,0,1,5.71-.57,17,17,0,0,1,5.72.6,8.59,8.59,0,0,1,4,2.48c.9,1,1.54,1.86,2.05,2.4S129.13,206.82,129.12,206.84Z"/><path class="f" d="M104.61,210.6a2.1,2.1,0,0,1-.43-1.08,5.06,5.06,0,0,1,.36-2.79,8.52,8.52,0,0,1,1.53-2.35c.48-.54.81-.83.84-.8a5.06,5.06,0,0,1-.67.94,10.88,10.88,0,0,0-1.41,2.33,5.35,5.35,0,0,0-.43,2.64C104.47,210.18,104.66,210.58,104.61,210.6Z"/><path class="f" d="M103.59,207.38a2.15,2.15,0,0,1,.24-1.73A2.28,2.28,0,0,1,105,204.4c.06.07-.53.57-.94,1.39A12.3,12.3,0,0,0,103.59,207.38Z"/><path class="f" d="M107.27,215.3s-.18-.09-.44-.34a6.32,6.32,0,0,1-.94-1.2,7,7,0,0,1-.83-4.88,10.3,10.3,0,0,1,2.12-4.52,3.79,3.79,0,0,1,1.17-1,1.29,1.29,0,0,1,.53-.19,5.17,5.17,0,0,0-1.54,1.3,11.19,11.19,0,0,0-2,4.44,7.1,7.1,0,0,0,.71,4.72A12.87,12.87,0,0,0,107.27,215.3Z"/><path class="f" d="M108.93,215.9a1.91,1.91,0,0,1-.6-.35,5.2,5.2,0,0,1-1.23-1.44,9.53,9.53,0,0,1-1-2.6,7.72,7.72,0,0,1,0-3.42,8.21,8.21,0,0,1,3.49-5,8.31,8.31,0,0,1,1.66-.88,2.49,2.49,0,0,1,.66-.21,18.72,18.72,0,0,0-2.2,1.27,8.33,8.33,0,0,0-3.31,4.9,8.59,8.59,0,0,0,.93,5.85A6.06,6.06,0,0,0,108.93,215.9Z"/><path class="f" d="M127.8,206.73a9.43,9.43,0,0,1-1.68-1.94,10.4,10.4,0,0,0-1.87-2,4.05,4.05,0,0,0-1.42-.72,11.92,11.92,0,0,0-1.69-.44,21.84,21.84,0,0,0-6.13-.29c-1.57.15-2.53.39-2.54.34a2.79,2.79,0,0,1,.66-.21,15.34,15.34,0,0,1,1.86-.35,19.37,19.37,0,0,1,6.21.21,10.7,10.7,0,0,1,1.73.45,4.34,4.34,0,0,1,1.49.79,9.55,9.55,0,0,1,1.88,2.1c.45.65.82,1.17,1.09,1.52A4.09,4.09,0,0,1,127.8,206.73Z"/><path class="f" d="M112.18,201.61c0,.1-1.15.16-2.49.61s-2.28,1.12-2.34,1a4.89,4.89,0,0,1,2.24-1.33A5.1,5.1,0,0,1,112.18,201.61Z"/><path class="f" d="M125.72,204.94s-.26-.27-.72-.76a5.94,5.94,0,0,0-2.26-1.64,12.68,12.68,0,0,0-4.15-.44,26.33,26.33,0,0,0-5.13.37,9.34,9.34,0,0,0-4.28,2.66,8.41,8.41,0,0,0-2,3.64,10.68,10.68,0,0,0-.15,3.85,1.62,1.62,0,0,1-.08-.26,7,7,0,0,1-.13-.77,8.19,8.19,0,0,1,.15-2.87,8.38,8.38,0,0,1,2-3.78,9.45,9.45,0,0,1,4.42-2.77,24.35,24.35,0,0,1,5.2-.35,12.14,12.14,0,0,1,4.23.52,5.63,5.63,0,0,1,2.27,1.76,7.46,7.46,0,0,1,.48.61C125.68,204.85,125.73,204.93,125.72,204.94Z"/><path class="f" d="M124.64,204.36a7.66,7.66,0,0,1-.89-.42,13.37,13.37,0,0,0-2.45-1,5.12,5.12,0,0,0-1.79-.21c-.66,0-1.36,0-2.1.07a12.9,12.9,0,0,0-4.62,1.12,9,9,0,0,0-3.64,3,6.47,6.47,0,0,0-1.1,3.66c0,1.12,0,2,0,2.66a7.5,7.5,0,0,1,0,1,4.78,4.78,0,0,1-.11-1c0-.63-.12-1.54-.12-2.67a6.64,6.64,0,0,1,1.08-3.82,9.2,9.2,0,0,1,3.75-3.1,12.58,12.58,0,0,1,4.73-1.12,19.32,19.32,0,0,1,2.13,0,5.36,5.36,0,0,1,1.84.26,11.72,11.72,0,0,1,2.45,1.09A4.78,4.78,0,0,1,124.64,204.36Z"/><path class="f" d="M109.24,215.33a2.7,2.7,0,0,1-.27-.61,14.17,14.17,0,0,1-.55-1.74,6.62,6.62,0,0,1,1.15-5.79,7.38,7.38,0,0,1,2.56-2.12A13.49,13.49,0,0,1,114.6,204a13.2,13.2,0,0,1,1.76-.48,2.11,2.11,0,0,1,.67-.07c0,.05-.93.21-2.35.75a14.82,14.82,0,0,0-2.4,1.16,7.12,7.12,0,0,0-2.46,2.06,6.84,6.84,0,0,0-1.28,2.93,7,7,0,0,0,.09,2.62C109,214.41,109.3,215.31,109.24,215.33Z"/><path class="f" d="M124.3,204.59c0,.08-1.56-.37-3.48-.71s-3.5-.46-3.5-.55a11.87,11.87,0,0,1,3.56.24A11.65,11.65,0,0,1,124.3,204.59Z"/><path class="f" d="M114.72,220.74a2.4,2.4,0,0,1-.68-.32,8.82,8.82,0,0,1-1.63-1.23,10.7,10.7,0,0,1-3-5.95,7.47,7.47,0,0,1,.16-3.72,7.66,7.66,0,0,1,1.61-2.58,17.85,17.85,0,0,1,1.46-1.42,3,3,0,0,1,.59-.46s-.76.74-1.88,2a7.72,7.72,0,0,0-1.51,2.53,7.38,7.38,0,0,0-.12,3.58,10.93,10.93,0,0,0,2.88,5.84A14.92,14.92,0,0,0,114.72,220.74Z"/><path class="f" d="M113.88,218.44a13.47,13.47,0,0,1-1.21-1.73,21.43,21.43,0,0,1-1.18-2,8.84,8.84,0,0,1-.82-2.72,6.58,6.58,0,0,1,.24-2.83,5.69,5.69,0,0,1,.51-1.14l.63-.88a14.31,14.31,0,0,1,1-1.18c.26-.27.4-.41.42-.39s-.49.65-1.25,1.69l-.58.88a5.78,5.78,0,0,0-.47,1.1A6.74,6.74,0,0,0,111,212a9.51,9.51,0,0,0,.78,2.63c.36.77.79,1.42,1.1,2A13.8,13.8,0,0,1,113.88,218.44Z"/><path class="f" d="M114.11,219.77a5.69,5.69,0,0,1-1.26-1.08,10.11,10.11,0,0,1-2.2-3.32,11.06,11.06,0,0,1-.63-3.94,7.09,7.09,0,0,1,.1-1.65,11.17,11.17,0,0,1,.12,1.64,12.5,12.5,0,0,0,.7,3.84,11.31,11.31,0,0,0,2.08,3.29C113.68,219.3,114.14,219.73,114.11,219.77Z"/><path class="f" d="M113.79,217.7a7.37,7.37,0,0,1-.76-1.39,23.94,23.94,0,0,1-1.4-3.58,5,5,0,0,1-.25-2.14,12.72,12.72,0,0,1,.52-1.66,9,9,0,0,1,.6-1.47,7.9,7.9,0,0,1-.39,1.54c-.12.47-.35,1-.45,1.64a4.82,4.82,0,0,0,.27,2,34.25,34.25,0,0,0,1.3,3.58A9.59,9.59,0,0,1,113.79,217.7Z"/><path class="f" d="M130.1,223.17a1,1,0,0,1-.2.18,6.39,6.39,0,0,1-.59.44,10,10,0,0,1-2.46,1.2,12.6,12.6,0,0,1-8.88-.33,18.68,18.68,0,0,1-4.21-2.65c-.57-.51-1.14-1-1.63-1.44a11.69,11.69,0,0,1-1.19-1.48,13.07,13.07,0,0,1-1.29-2.41c-.12-.3-.2-.53-.26-.69a.82.82,0,0,1-.06-.26,21.7,21.7,0,0,0,1.79,3.24,12.41,12.41,0,0,0,1.2,1.42c.48.46,1.05.9,1.62,1.39a18.29,18.29,0,0,0,4.15,2.59,12.71,12.71,0,0,0,8.69.41A14.69,14.69,0,0,0,130.1,223.17Z"/><path class="f" d="M130.37,223.92a1.07,1.07,0,0,1-.17.21,3.68,3.68,0,0,1-.6.47,10.75,10.75,0,0,1-2.57,1.11,12.82,12.82,0,0,1-4.12.48,12.49,12.49,0,0,1-2.43-.35c-.81-.25-1.66-.5-2.51-.79a13.61,13.61,0,0,1-4.53-2.29,24.81,24.81,0,0,1-2.74-3.11,15.28,15.28,0,0,1-1.52-2.34,6.07,6.07,0,0,1-.32-.69c-.07-.16-.1-.24-.09-.25s.18.32.51.88a20.23,20.23,0,0,0,1.59,2.27,25.18,25.18,0,0,0,2.76,3,13.6,13.6,0,0,0,4.44,2.22c.85.29,1.68.53,2.48.79a13.59,13.59,0,0,0,2.38.36,13.44,13.44,0,0,0,4-.41,12.27,12.27,0,0,0,2.57-1A8.68,8.68,0,0,0,130.37,223.92Z"/><path class="f" d="M109.29,219.29a4,4,0,0,1-1.21-1.55,3.67,3.67,0,0,1-.61-1.87c.08,0,.37.79.88,1.73A14.82,14.82,0,0,1,109.29,219.29Z"/><path class="f" d="M115.7,225a3.09,3.09,0,0,1-1.16-.34,8.78,8.78,0,0,1-2.46-1.59,6.59,6.59,0,0,1-1.07-1.21c-.29-.4-.56-.75-.76-1.06a4.94,4.94,0,0,1-.61-1c.1-.08,1.1,1.5,2.65,3.1A15.15,15.15,0,0,0,115.7,225Z"/><path class="f" d="M118.52,226.41s-.18.16-.51.13a7.48,7.48,0,0,1-1.18-.28,4.68,4.68,0,0,1-1.58-.62,4.78,4.78,0,0,1,1.67.32c.44.13.85.28,1.13.36S118.5,226.37,118.52,226.41Z"/><path class="f" d="M126.29,226.32a3.66,3.66,0,0,1-1.43.38,13.56,13.56,0,0,1-3.57-.14,17.42,17.42,0,0,1-3.48-.79,4.19,4.19,0,0,1-1.33-.67s.53.2,1.4.46a25.54,25.54,0,0,0,3.45.7,17,17,0,0,0,3.51.22C125.74,226.43,126.28,226.27,126.29,226.32Z"/><path class="f" d="M123.65,227.05s-.28.15-.77.19-1.15.07-1.89.08a7,7,0,0,1-1.9-.18c-.48-.13-.73-.32-.72-.36a5,5,0,0,1,.77.15A11.08,11.08,0,0,0,121,227c.73,0,1.4,0,1.88,0S123.64,227,123.65,227.05Z"/><path class="f" d="M131.63,222.35s.08.18,0,.52a2.46,2.46,0,0,1-.61,1.28,12.47,12.47,0,0,1-1.51,1.43,7.33,7.33,0,0,1-2.14,1.39,15,15,0,0,1-4.48,1.11,7.51,7.51,0,0,1-1.4,0,1.43,1.43,0,0,1-.51-.11c0-.05.73.05,1.89-.08a17.07,17.07,0,0,0,4.37-1.17,7.71,7.71,0,0,0,2.09-1.33A16,16,0,0,0,130.9,224,2.54,2.54,0,0,0,131.63,222.35Z"/><path class="f" d="M131.86,218s0,.22-.2.49a2.64,2.64,0,0,1-1,.79,3.35,3.35,0,0,1-1.75.37,10.09,10.09,0,0,1,1.62-.65A4.93,4.93,0,0,0,131.86,218Z"/><path class="f" d="M131.43,219.05s0,.26-.29.55a3,3,0,0,1-1.23.84,3.81,3.81,0,0,1-2,.27c0-.1.91-.18,1.93-.56A4.94,4.94,0,0,0,131.43,219.05Z"/><path class="f" d="M129.77,221.54c0-.08.38-.26.76-.61s.58-.74.66-.72,0,.54-.45.95S129.79,221.62,129.77,221.54Z"/><path class="f" d="M129.92,222.9c0-.07.15-.29.37-.56s.41-.49.49-.45,0,.35-.25.65S130,223,129.92,222.9Z"/><path class="f" d="M123.32,223.6a4.19,4.19,0,0,1-1.56,0,9.28,9.28,0,0,1-3.53-1.29,10,10,0,0,1-3.79-3.67s.36.47,1,1.12a16.27,16.27,0,0,0,2.9,2.28,10.47,10.47,0,0,0,3.4,1.35C122.72,223.56,123.32,223.54,123.32,223.6Z"/><path class="f" d="M123,224.33a9.91,9.91,0,0,1-4.43-.89,10.07,10.07,0,0,1-2.81-1.56,2.49,2.49,0,0,1-.83-1s.32.4,1,.88a11.71,11.71,0,0,0,2.79,1.44,17.81,17.81,0,0,0,3,.92A9.51,9.51,0,0,1,123,224.33Z"/><path class="f" d="M129.3,223.54a2.67,2.67,0,0,1-.7.36c-.46.2-1.16.45-2,.73a6.9,6.9,0,0,1-3.15.5,18.2,18.2,0,0,1-3.83-.8,17.45,17.45,0,0,1-6.27-3.27,10.37,10.37,0,0,1-1.34-1.68,4.46,4.46,0,0,1-.41-.68c.06,0,.64.94,1.9,2.2a18.48,18.48,0,0,0,6.21,3.13,18,18,0,0,0,3.76.81,6.9,6.9,0,0,0,3.07-.42c.87-.25,1.56-.46,2-.63A4.8,4.8,0,0,1,129.3,223.54Z"/><path class="f" d="M128.67,223.17a5.29,5.29,0,0,1-2.69.88,13.12,13.12,0,0,1-2,.14c-.53,0-.83-.2-.81-.23s.32,0,.81,0,1.2-.14,2-.24A25.86,25.86,0,0,0,128.67,223.17Z"/><path class="f" d="M103.06,200.41c0,.07-.37.47-.94.9s-1.1.67-1.07.7-.06,0,0-.13a.64.64,0,0,1,.19-.23,9.2,9.2,0,0,1,.71-.59C102.51,200.63,103,200.34,103.06,200.41Z"/><path class="f" d="M111.76,197.58a10.07,10.07,0,0,1-1.7.32c-1.06.18-2.54.29-4.12.63a11.72,11.72,0,0,0-5.17,2.57s.09-.14.3-.35.53-.51,1-.85a8.84,8.84,0,0,1,3.84-1.68,39.41,39.41,0,0,1,4.16-.54A10.07,10.07,0,0,1,111.76,197.58Z"/><path class="f" d="M110.87,198.2c0,.09-1.58.22-3.48.68s-3.38,1.05-3.41,1a10.32,10.32,0,0,1,3.34-1.28A10.52,10.52,0,0,1,110.87,198.2Z"/><path class="f" d="M122,197.76a6.66,6.66,0,0,1-1.37,0c-.84,0-2-.13-3.29-.23s-2.44-.12-3.28-.1a10.38,10.38,0,0,1-1.37,0,13.61,13.61,0,0,1,4.67-.23c1.29.1,2.45.22,3.29.32A5.28,5.28,0,0,1,122,197.76Z"/><path class="f" d="M125.33,198.8s-.67-.13-1.74-.32a35.23,35.23,0,0,0-4.24-.44c-1.67-.08-3.19-.13-4.28-.13a9.53,9.53,0,0,1-1.78-.08,11,11,0,0,1,1.78-.14c1.1-.06,2.61,0,4.29,0a25,25,0,0,1,4.27.54A7.05,7.05,0,0,1,125.33,198.8Z"/><path class="f" d="M125.91,200c-.07.05-.31-.14-.58-.38s-.49-.47-.44-.54.35,0,.64.31S126,199.92,125.91,200Z"/><path class="f" d="M101.92,199a5.17,5.17,0,0,1,.8-.29l2.19-.7c.94-.27,2-.64,3.28-1,.63-.16,1.27-.36,2-.51a21.22,21.22,0,0,1,2.16-.28,48.25,48.25,0,0,1,7.61.27,11.71,11.71,0,0,1,2.27.41,5.47,5.47,0,0,1,.6.21.58.58,0,0,1,.19.11s-.29-.08-.82-.2a13.19,13.19,0,0,0-2.26-.31,58.38,58.38,0,0,0-7.56-.18,17.69,17.69,0,0,0-2.13.27c-.68.14-1.33.33-1.95.48-1.24.31-2.35.66-3.29.9l-2.22.6A4,4,0,0,1,101.92,199Z"/><path class="f" d="M101.72,199.41c0,.09-.26.21-.57.36s-.58.3-.64.23.14-.33.5-.51S101.71,199.33,101.72,199.41Z"/><path class="f" d="M109.87,196.17a7.38,7.38,0,0,1-1.46.29,13.31,13.31,0,0,0-3.43.95c-1.27.6-2.57.83-3.37,1.22a5,5,0,0,0-1.21.81s.27-.57,1.11-1,2.09-.71,3.36-1.31a11.36,11.36,0,0,1,3.51-.88A6.73,6.73,0,0,1,109.87,196.17Z"/><path class="f" d="M121.64,196.58a12.13,12.13,0,0,1-1.7-.27,38,38,0,0,0-4.1-.5,36.43,36.43,0,0,0-4.13,0c-1.06.06-1.67.3-1.69.25a3.77,3.77,0,0,1,1.67-.47,25.34,25.34,0,0,1,4.17-.05,27.11,27.11,0,0,1,4.13.59A8,8,0,0,1,121.64,196.58Z"/><path class="f" d="M100.15,198.91a.56.56,0,0,1,.06-.21,2.4,2.4,0,0,1,.3-.55,4.74,4.74,0,0,1,1.75-1.49,11.75,11.75,0,0,1,3.24-1,40.76,40.76,0,0,1,4.11-.61,38.75,38.75,0,0,1,7.53,0c1,.1,1.73.22,2.26.31a5.12,5.12,0,0,1,.82.18,3.54,3.54,0,0,1-.84-.06c-.53-.06-1.3-.14-2.26-.21a44,44,0,0,0-7.49.06c-1.45.14-2.83.34-4.08.58a12.45,12.45,0,0,0-3.19.95,5.06,5.06,0,0,0-1.76,1.37C100.28,198.64,100.17,198.92,100.15,198.91Z"/><path class="f" d="M106.15,196.21c0,.08-1.09.36-2.4.85-.65.24-1.24.47-1.64.67s-.6.4-.64.37.12-.3.53-.56a8.86,8.86,0,0,1,1.65-.78A6.44,6.44,0,0,1,106.15,196.21Z"/><path class="f" d="M120.32,195.21a4.45,4.45,0,0,1-.8-.13c-.5-.11-1.24-.26-2.15-.41a28.2,28.2,0,0,0-3.21-.36,27.28,27.28,0,0,0-4,.19,23.33,23.33,0,0,0-7,1.32,16.19,16.19,0,0,0-2.59,1.47,2.55,2.55,0,0,1,.61-.54,9.59,9.59,0,0,1,1.89-1.13,21.42,21.42,0,0,1,7.1-1.42,23.94,23.94,0,0,1,4-.17,25.26,25.26,0,0,1,3.24.42c.91.18,1.64.37,2.14.51A4.21,4.21,0,0,1,120.32,195.21Z"/><path class="f" d="M120.89,195.27s-.58-.23-1.54-.48-2.32-.52-3.82-.81a18.42,18.42,0,0,0-3.86-.37c-1,0-1.61.17-1.62.11a1.37,1.37,0,0,1,.42-.14,7.07,7.07,0,0,1,1.18-.19,15.08,15.08,0,0,1,3.94.28,35.23,35.23,0,0,1,3.82.91A4.27,4.27,0,0,1,120.89,195.27Z"/><path class="f" d="M110,192.44a2.88,2.88,0,0,1,1.26-.43,9.17,9.17,0,0,1,3.19.08,14.64,14.64,0,0,1,3.07.86c.77.35,1.06.83,1,.85a4.62,4.62,0,0,0-1.1-.65,21.92,21.92,0,0,0-3-.76,10.79,10.79,0,0,0-3.11-.16C110.52,192.31,110.05,192.48,110,192.44Z"/><path class="f" d="M101.93,195.72s.13-.12.4-.31a5.85,5.85,0,0,1,1.23-.7,41.28,41.28,0,0,1,4.33-1.67,8.07,8.07,0,0,1,2.55-.35,19.92,19.92,0,0,1,2.08.13,12,12,0,0,1,1.9.24,11.74,11.74,0,0,1-1.91,0c-.59,0-1.29-.07-2.07-.05a8.44,8.44,0,0,0-2.47.36c-1.69.54-3.23,1.15-4.32,1.57a7.79,7.79,0,0,0-1.25.6A1.68,1.68,0,0,1,101.93,195.72Z"/><path class="f" d="M105.63,194.31a3.24,3.24,0,0,1,1.64-.58,3.4,3.4,0,0,1,1.74,0,9,9,0,0,1-1.69.28A10.1,10.1,0,0,1,105.63,194.31Z"/><path class="f" d="M109.76,192a34.89,34.89,0,0,0-4.61,1.21,19.21,19.21,0,0,0-3,1.46,7.6,7.6,0,0,0-1.1.84s.24-.53,1-1a15.17,15.17,0,0,1,6.35-2.4A4.74,4.74,0,0,1,109.76,192Z"/><path class="f" d="M119.18,193.43a1.62,1.62,0,0,1-.72-.28,19.8,19.8,0,0,0-1.79-1.06,15,15,0,0,0-6.61-1.37,8,8,0,0,0-1.92.16,14.73,14.73,0,0,0-1.74.51,14.31,14.31,0,0,0-2.84,1.14,8,8,0,0,0-1.63,1.27,3.35,3.35,0,0,1-.56.51,3.73,3.73,0,0,1,.48-.6,7.09,7.09,0,0,1,1.59-1.37,14.64,14.64,0,0,1,2.87-1.22,18.31,18.31,0,0,1,1.76-.54,8.59,8.59,0,0,1,2-.17,14.17,14.17,0,0,1,6.72,1.49,12.91,12.91,0,0,1,1.75,1.15C118.93,193.32,119.19,193.4,119.18,193.43Z"/><path class="f" d="M113.22,191.52c0,.09-1.2-.09-2.68,0a17.72,17.72,0,0,1-2.7.12,9.34,9.34,0,0,1,2.68-.43A5.8,5.8,0,0,1,113.22,191.52Z"/><path class="f" d="M106.8,191.83a6.72,6.72,0,0,1-1.44.49,6.14,6.14,0,0,1-1.46.41,2.79,2.79,0,0,1,1.37-.71A2.72,2.72,0,0,1,106.8,191.83Z"/><path class="f" d="M118.64,194.05a8.13,8.13,0,0,1-1.84-.39,7.65,7.65,0,0,1-1.81-.51,4.64,4.64,0,0,1,1.88.21A4.54,4.54,0,0,1,118.64,194.05Z"/><path class="f" d="M123.61,197.13a11.6,11.6,0,0,1-1.52-.85,10.84,10.84,0,0,1-1.55-.81,3.35,3.35,0,0,1,1.69.54A3.25,3.25,0,0,1,123.61,197.13Z"/></g><g class="g"><path class="f" d="M143.34,218.76a3.85,3.85,0,0,1-.36.6c-.24.37-.61.91-1.11,1.54a12.37,12.37,0,0,1-4.9,3.84,9,9,0,0,1-3.39.71,4.85,4.85,0,0,1-2.74-.66,5.61,5.61,0,0,1-1.37-1.33,3.4,3.4,0,0,1-.39-.58,3.71,3.71,0,0,1,.47.52,6,6,0,0,0,1.38,1.24,4.78,4.78,0,0,0,2.65.58,9.16,9.16,0,0,0,3.29-.71,12.77,12.77,0,0,0,4.86-3.73c.52-.6.9-1.12,1.17-1.48A3.76,3.76,0,0,1,143.34,218.76Z"/><path class="f" d="M143.05,215.12a7.77,7.77,0,0,0-.29-.89,3.87,3.87,0,0,0-1.73-1.79,8.25,8.25,0,0,0-1.64-.61,7.39,7.39,0,0,0-2-.32,10.3,10.3,0,0,0-4.38,1.34,12.06,12.06,0,0,0-2,1.32,5.76,5.76,0,0,0-1.47,1.63,6.89,6.89,0,0,0-.61,3.66,10.2,10.2,0,0,0,.91,3.36s-.06-.06-.14-.2a6.59,6.59,0,0,1-.3-.63,8.46,8.46,0,0,1-.65-2.51,7.08,7.08,0,0,1,.58-3.79,6,6,0,0,1,1.52-1.71,12.14,12.14,0,0,1,2-1.35,10.36,10.36,0,0,1,4.5-1.35,7.25,7.25,0,0,1,2,.35,8.42,8.42,0,0,1,1.67.65,3.92,3.92,0,0,1,1.73,1.91A2.51,2.51,0,0,1,143.05,215.12Z"/><path class="f" d="M131.7,222.1a2.73,2.73,0,0,1-.34-.59,4.46,4.46,0,0,1-.33-1.83,8.51,8.51,0,0,1,.53-2.7,6.55,6.55,0,0,1,1.72-2.9,9.12,9.12,0,0,1,3.09-1.37,4.5,4.5,0,0,1,2.74,0,8.74,8.74,0,0,1,1.69.76,3.25,3.25,0,0,1,.57.37,21.55,21.55,0,0,0-2.31-1,4.34,4.34,0,0,0-2.63.09,8.45,8.45,0,0,0-3,1.34,6.39,6.39,0,0,0-1.67,2.78,8.56,8.56,0,0,0-.57,2.63A5.32,5.32,0,0,0,131.7,222.1Z"/><path class="f" d="M135.16,213.07c0,.06-.28,0-.45-.29s-.17-.5-.1-.51.17.17.31.37S135.2,213,135.16,213.07Z"/><path class="f" d="M130,220.41a5.36,5.36,0,0,1,.08-1.28,10.14,10.14,0,0,1,.82-3,6.56,6.56,0,0,1,1.92-2.44,4.43,4.43,0,0,1,.81-.49.85.85,0,0,1,.33-.12s-.43.25-1,.75a7.08,7.08,0,0,0-1.81,2.41,12.46,12.46,0,0,0-.87,2.92A8.11,8.11,0,0,1,130,220.41Z"/><path class="f" d="M129.91,220.27a1.57,1.57,0,0,1-.32-.84,4.68,4.68,0,0,1,.19-2.16,14.48,14.48,0,0,1,.8-2c.26-.5.55-.72.57-.69s-.2.27-.41.77-.47,1.21-.72,2a5.34,5.34,0,0,0-.25,2.06C129.82,219.94,130,220.26,129.91,220.27Z"/><path class="f" d="M133.59,223.48s-.13-.07-.32-.25a5,5,0,0,1-.71-.85,5.43,5.43,0,0,1,.47-6.81,4.9,4.9,0,0,1,.83-.74,1.28,1.28,0,0,1,.35-.21s-.46.36-1,1.06a5.66,5.66,0,0,0-1.33,3.22,5.73,5.73,0,0,0,.87,3.38C133.19,223.06,133.62,223.45,133.59,223.48Z"/><path class="f" d="M142.66,216.16A8.44,8.44,0,0,1,142,215a3.19,3.19,0,0,0-2.59-1.42,7.34,7.34,0,0,0-3.1.3c-.78.23-1.24.43-1.26.39a4.14,4.14,0,0,1,1.2-.56,7,7,0,0,1,3.19-.38,4.83,4.83,0,0,1,1.71.53,2.18,2.18,0,0,1,1,1.06A6,6,0,0,1,142.66,216.16Z"/><path class="f" d="M142.71,218.4a10.25,10.25,0,0,0-1.37-2.66,4.82,4.82,0,0,0-.78-.83,2.86,2.86,0,0,0-.84-.39,3.89,3.89,0,0,1-.85-.25,2.61,2.61,0,0,1,.89.08,2.54,2.54,0,0,1,.93.38,3.66,3.66,0,0,1,.85.86A5.07,5.07,0,0,1,142.71,218.4Z"/><path class="f" d="M135.43,224a1.43,1.43,0,0,1-.86.44,3.16,3.16,0,0,1-2.28-.43,3.93,3.93,0,0,1-1.51-1.78,1.7,1.7,0,0,1-.17-1,8.8,8.8,0,0,0,.33.88,4.19,4.19,0,0,0,1.48,1.63,3.13,3.13,0,0,0,2.11.47A5,5,0,0,0,135.43,224Z"/><path class="f" d="M132.42,225a1.09,1.09,0,0,1-.74-.19,3.35,3.35,0,0,1-1.21-1.4,5.09,5.09,0,0,1-.7-2.47,20.53,20.53,0,0,0,.93,2.36,3.63,3.63,0,0,0,1.07,1.36C132.14,224.89,132.43,224.92,132.42,225Z"/><path class="f" d="M138.7,223.29a2,2,0,0,1-.47.19,6.09,6.09,0,0,1-1.37.23,5.34,5.34,0,0,1-2.05-.24,3,3,0,0,1-1.7-1.85,6.46,6.46,0,0,1,0-4.51,5.7,5.7,0,0,1,.63-1.23,1.68,1.68,0,0,1,.32-.39,12.9,12.9,0,0,0-.78,1.68,6.57,6.57,0,0,0,.05,4.36,2.75,2.75,0,0,0,1.55,1.72,5.79,5.79,0,0,0,2,.29A12.82,12.82,0,0,0,138.7,223.29Z"/><path class="f" d="M138.41,223.46a1.1,1.1,0,0,1-.43.07,5.12,5.12,0,0,1-1.19-.1,3.44,3.44,0,0,1-1.63-.71,4.69,4.69,0,0,1-1.21-1.81,5.23,5.23,0,0,1,0-3.87,4.68,4.68,0,0,1,.58-1,1.48,1.48,0,0,1,.3-.32,8.29,8.29,0,0,0-.71,1.42,5.35,5.35,0,0,0,.07,3.72,4.91,4.91,0,0,0,1.13,1.73,3.49,3.49,0,0,0,1.52.71A9.83,9.83,0,0,0,138.41,223.46Z"/><path class="f" d="M135.14,217a2.17,2.17,0,0,1,.61-1.44,2.34,2.34,0,0,1,1.28-.9c0,.06-.56.42-1.08,1.06A14.53,14.53,0,0,0,135.14,217Z"/><path class="f" d="M137,221.72a1.29,1.29,0,0,1-.74-.15,1.2,1.2,0,0,1-.58-.61,6.1,6.1,0,0,1-.33-.94,7.14,7.14,0,0,1-.37-2.49c.07,0,.23,1.1.61,2.42.19.67.35,1.28.76,1.47S137,221.67,137,221.72Z"/><path class="f" d="M135.3,221.24a3.47,3.47,0,0,1-.8-1.52,3.42,3.42,0,0,1-.2-1.7c.07,0,.16.75.44,1.63S135.36,221.2,135.3,221.24Z"/><path class="f" d="M139.37,219.94a3,3,0,0,1-.3-.88l-.26-1a1,1,0,0,0-.71-.77c-.2,0-.18,0-.16.25l.07.58c.06.37.12.7.19,1a4.38,4.38,0,0,1,.18.91,2.8,2.8,0,0,1-.35-.86,6.54,6.54,0,0,1-.24-1,5.21,5.21,0,0,1-.09-.59.67.67,0,0,1,0-.39.41.41,0,0,1,.43-.14,1.26,1.26,0,0,1,.88.95c.1.38.15.71.21,1A3.72,3.72,0,0,1,139.37,219.94Z"/><path class="f" d="M138.58,221.76a8.67,8.67,0,0,1-.69-1.33c-.19-.43-.44-.92-.67-1.49a4.82,4.82,0,0,1-.24-1,1.34,1.34,0,0,1,.26-1.08,1,1,0,0,1,1.11-.09,1.78,1.78,0,0,1,.75.68,5.8,5.8,0,0,1,.53,1.57,8.84,8.84,0,0,1,.3,1.47,9.09,9.09,0,0,1-.47-1.42,6.57,6.57,0,0,0-.55-1.5,1.7,1.7,0,0,0-.66-.58.79.79,0,0,0-.83.05,1.07,1.07,0,0,0-.19.87,3.89,3.89,0,0,0,.21.91c.22.57.45,1.07.62,1.5A8,8,0,0,1,138.58,221.76Z"/><path class="f" d="M141.32,220.75a5.6,5.6,0,0,0-.62-2.46,15.26,15.26,0,0,0-1.58-2,2,2,0,0,1,.63.46,5.85,5.85,0,0,1,1.17,1.46,3.91,3.91,0,0,1,.51,1.81A1.67,1.67,0,0,1,141.32,220.75Z"/><path class="f" d="M140.57,219.48c-.07,0-.34-.66-.84-1.4-.25-.37-.51-.69-.69-.91s-.36-.26-.36-.3.23,0,.48.17a5.79,5.79,0,0,1,.78.9A3.16,3.16,0,0,1,140.57,219.48Z"/><path class="f" d="M141.3,213.09s-.25-.22-.71-.47a4.47,4.47,0,0,0-2-.48,9.22,9.22,0,0,0-2,.15,2,2,0,0,0-.76.35s.16-.36.71-.52a7.07,7.07,0,0,1,2.11-.23,4,4,0,0,1,2,.58C141.15,212.77,141.32,213.08,141.3,213.09Z"/><path class="f" d="M137.54,221.85a1,1,0,0,1-.34-.18,2.92,2.92,0,0,1-.76-.75,5.92,5.92,0,0,1-.93-3.34,2.49,2.49,0,0,1,.87-1.74,2.81,2.81,0,0,1,1.44-.67,2.84,2.84,0,0,1,1.06,0c.25.05.38.1.37.12a5.22,5.22,0,0,0-1.4.05,2.86,2.86,0,0,0-1.32.67,2.34,2.34,0,0,0-.77,1.58,6.31,6.31,0,0,0,.83,3.23A4.87,4.87,0,0,0,137.54,221.85Z"/><path class="f" d="M138,221.25s-.25-.17-.58-.52a5,5,0,0,1-1-1.61,2.69,2.69,0,0,1,0-1.91,1.46,1.46,0,0,1,.43-.67s-.13.28-.26.73a2.83,2.83,0,0,0,0,1.77,6,6,0,0,0,.94,1.57C137.81,221,138,221.23,138,221.25Z"/><path class="f" d="M142.76,219.29a4.84,4.84,0,0,1-.56-.91l-.55-1a3.11,3.11,0,0,0-.78-1.12,3.52,3.52,0,0,0-2.4-.33,2.9,2.9,0,0,0-1,.36,1.31,1.31,0,0,1,.94-.53,4.61,4.61,0,0,1,1.18-.12A2.56,2.56,0,0,1,141,216a3.06,3.06,0,0,1,.83,1.21l.51,1.05A3.94,3.94,0,0,1,142.76,219.29Z"/><path class="f" d="M128.28,216a.43.43,0,0,1,0-.21c0-.13,0-.32.11-.56a7.2,7.2,0,0,1,.77-2,4.53,4.53,0,0,1,2.45-2,12.45,12.45,0,0,1,3.8-.74,10.53,10.53,0,0,1,6.69,1.87,7.88,7.88,0,0,1,1.54,1.48,4.88,4.88,0,0,1,.33.47c.07.12.11.18.1.18a10.06,10.06,0,0,0-2.07-2,10.67,10.67,0,0,0-6.58-1.77,12.68,12.68,0,0,0-3.73.71,4.37,4.37,0,0,0-2.38,1.85,7.58,7.58,0,0,0-.82,1.93C128.36,215.74,128.29,216,128.28,216Z"/><path class="f" d="M132.61,211.93s-.41,0-1,.29a4.5,4.5,0,0,0-1.92,1.57,7.76,7.76,0,0,0-1,2.32,5.21,5.21,0,0,1-.32,1,3.9,3.9,0,0,1,.15-1.07,6.6,6.6,0,0,1,1-2.42,4.18,4.18,0,0,1,2.07-1.58A2,2,0,0,1,132.61,211.93Z"/><path class="f" d="M129,212a1.84,1.84,0,0,1,.31-.63,3.88,3.88,0,0,1,1.46-1.21c1.47-.78,3.79-.81,6.2-.43a14.68,14.68,0,0,1,5.82,2.23,11.36,11.36,0,0,1,1.48,1.19,4.43,4.43,0,0,1,.46.52,21.5,21.5,0,0,0-2-1.56,15.6,15.6,0,0,0-5.77-2.13c-2.38-.38-4.65-.37-6.08.33A3.93,3.93,0,0,0,129,212Z"/><path class="f" d="M127.45,220.07a3.39,3.39,0,0,1-.2-1.08,10.49,10.49,0,0,1,.12-2.66,10.65,10.65,0,0,1,.8-2.53,3.67,3.67,0,0,1,.56-1,20.74,20.74,0,0,0-1.11,3.53A20.25,20.25,0,0,0,127.45,220.07Z"/><path class="f" d="M145.53,213.31a11,11,0,0,0-1.28-1.32,12.05,12.05,0,0,0-4-2,33.53,33.53,0,0,0-4.33-1.1c-1.13-.18-1.84-.11-1.84-.15a1.43,1.43,0,0,1,.5-.07,8.35,8.35,0,0,1,1.36,0,26.85,26.85,0,0,1,4.38,1,10.89,10.89,0,0,1,4,2.08,5.49,5.49,0,0,1,.92,1A1.46,1.46,0,0,1,145.53,213.31Z"/><path class="f" d="M144.44,213.37c-.06,0-.6-.68-1.43-1.39s-1.61-1.17-1.57-1.24a4.52,4.52,0,0,1,1.73,1A4.22,4.22,0,0,1,144.44,213.37Z"/><path class="f" d="M134.9,207.5a3.1,3.1,0,0,1,1.65,0,18.64,18.64,0,0,1,3.81,1.17,17.76,17.76,0,0,1,3.45,2c.41.31.73.57.94.76a2,2,0,0,1,.31.32s-.52-.37-1.35-.93a21.39,21.39,0,0,0-3.45-1.9,21.62,21.62,0,0,0-3.75-1.22A6.76,6.76,0,0,0,134.9,207.5Z"/><path class="f" d="M148.49,205.31c-.05,0,.19-.71.43-1.86a6.92,6.92,0,0,0,.1-2,8.08,8.08,0,0,0-.72-2.38,15.82,15.82,0,0,0-2.64-3.72c-.81-.85-1.44-1.23-1.41-1.27a2.24,2.24,0,0,1,.45.25,8,8,0,0,1,1.09.9,14,14,0,0,1,2.73,3.73,7.65,7.65,0,0,1,.73,2.46,6.55,6.55,0,0,1-.16,2.1,11,11,0,0,1-.4,1.34A4,4,0,0,1,148.49,205.31Z"/><path class="f" d="M145.26,208.91a2.8,2.8,0,0,1,.72-.17c.22-.05.48-.12.76-.21s.54-.19.63-.52a12.58,12.58,0,0,1,.9-2.36,13.3,13.3,0,0,1-.66,2.44.91.91,0,0,1-.33.47,1.6,1.6,0,0,1-.47.19,4.9,4.9,0,0,1-.8.16A1.87,1.87,0,0,1,145.26,208.91Z"/><path class="f" d="M145.38,211.66s.1-.13.23-.31a7.18,7.18,0,0,0,.44-.82,3.75,3.75,0,0,1,.73-1.15,3.54,3.54,0,0,1-.51,1.26,2.77,2.77,0,0,1-.53.82C145.55,211.65,145.39,211.69,145.38,211.66Z"/><path class="f" d="M147.24,197.56s-.23-.22-.62-.53-1-.69-1.59-1.18a8.17,8.17,0,0,1-2-2c.06-.05.91.87,2.12,1.82a18.48,18.48,0,0,1,1.56,1.24A1.83,1.83,0,0,1,147.24,197.56Z"/><path class="f" d="M148,202a1.65,1.65,0,0,0-.25-1.44,10.35,10.35,0,0,0-1.1-1.25l-1.43-1.5c-1-1.08-1.91-2.05-2.56-2.77a10.89,10.89,0,0,1-1-1.2,9.08,9.08,0,0,1,1.13,1.08c.68.68,1.6,1.64,2.61,2.71l1.41,1.52a8.15,8.15,0,0,1,1.09,1.32,1.72,1.72,0,0,1,.27,1.13A.69.69,0,0,1,148,202Z"/><path class="f" d="M142.27,196.8s-.21,0-.43-.25a7.25,7.25,0,0,1-.69-1,5.85,5.85,0,0,1-.8-1.47,5.59,5.59,0,0,1,1,1.33c.26.39.44.76.61,1S142.29,196.77,142.27,196.8Z"/><path class="f" d="M147.2,204.36s0-.15,0-.43.17-.65.25-1.11c.23-1-.71-2.07-1.69-3.14s-1.84-2.14-2.45-2.88a12,12,0,0,1-1-1.24,7.78,7.78,0,0,1,1.1,1.12c.65.72,1.54,1.72,2.51,2.84a11.81,11.81,0,0,1,1.3,1.64,2.27,2.27,0,0,1,.38,1.69c-.11.49-.27.84-.34,1.1A3.55,3.55,0,0,1,147.2,204.36Z"/><path class="f" d="M148,201.08s-.07-.22-.2-.53a5.82,5.82,0,0,0-.68-1.17,7,7,0,0,1-.7-1.21c-.13-.34-.15-.57-.12-.58s.11.2.28.5.44.7.75,1.15a4.12,4.12,0,0,1,.64,1.25C148,200.85,148,201.08,148,201.08Z"/><path class="f" d="M145.44,197.33c-.06,0-.31-.36-.75-.76s-.66-.9-.58-.93.3.36.75.76S145.52,197.3,145.44,197.33Z"/><path class="f" d="M142.79,195.7a4.19,4.19,0,0,1-1.36-.91,4,4,0,0,1-1.06-1.25,9.15,9.15,0,0,1,1.23,1.06A8.54,8.54,0,0,1,142.79,195.7Z"/><path class="f" d="M146.52,202.83a2.28,2.28,0,0,1-1.18-1.25,14.49,14.49,0,0,0-.94-1.59,15.3,15.3,0,0,0-1.43-1.75c-1.11-1.17-2.18-2.17-2.89-3-.35-.4-.62-.73-.8-1s-.27-.38-.25-.39.44.48,1.18,1.24,1.82,1.74,2.94,2.92a16,16,0,0,1,1.45,1.79,13.31,13.31,0,0,1,.9,1.64,3.71,3.71,0,0,0,.68,1C146.39,202.73,146.53,202.81,146.52,202.83Z"/><path class="f" d="M145.1,199.46a8.31,8.31,0,0,1-1.11-1.13,7,7,0,0,1-1.05-1.18,4,4,0,0,1,1.23,1A3.66,3.66,0,0,1,145.1,199.46Z"/><path class="f" d="M147.12,202.1a2,2,0,0,1-1.09-.8,1.92,1.92,0,0,1-.55-1.24c.07,0,.28.53.74,1.08S147.16,202,147.12,202.1Z"/><path class="f" d="M141.62,198.18a19.86,19.86,0,0,1-2.12-2.25,19,19,0,0,1-1.94-2.41,37.38,37.38,0,0,1,4.06,4.66Z"/><path class="f" d="M135.6,194.75a1.22,1.22,0,0,1,.43.11,5.58,5.58,0,0,1,1.06.58,34.93,34.93,0,0,1,2.91,2.68c.56.52,1.12,1,1.63,1.42.26.19.5.46.72.51s.22-.29.22-.52a3.26,3.26,0,0,0-.48-1.51s.13.1.29.34a2.48,2.48,0,0,1,.36,1.16,2,2,0,0,1,0,.42.36.36,0,0,1-.41.32,2.69,2.69,0,0,1-.84-.54c-.52-.42-1.08-.89-1.65-1.42-1.15-1-2-2.12-2.84-2.71A10.12,10.12,0,0,0,135.6,194.75Z"/><path class="f" d="M136.77,194.18c.07-.05,1.13,1.15,2.53,2.53a23.32,23.32,0,0,0,1.91,1.64,6.45,6.45,0,0,1,.83.64,3.33,3.33,0,0,1-.93-.5,13.59,13.59,0,0,1-2-1.6c-.72-.69-1.31-1.37-1.73-1.86A5,5,0,0,1,136.77,194.18Z"/><path class="f" d="M145.34,202.7a2.66,2.66,0,0,1-1.46-1.35,4.54,4.54,0,0,1-.64-1.89c.08,0,.34.83.86,1.76A7,7,0,0,0,145.34,202.7Z"/><path class="f" d="M144.23,202.57a2.27,2.27,0,0,1-.43-.31l-1.12-.91c-.94-.79-2.23-1.88-3.63-3.11a11.15,11.15,0,0,0-2-1.63,9.44,9.44,0,0,0-1.95-.81c-1.17-.33-1.92-.48-1.91-.52a1.73,1.73,0,0,1,.53.06,14.34,14.34,0,0,1,1.42.29,8.64,8.64,0,0,1,2,.78,10.06,10.06,0,0,1,2.07,1.65l3.57,3.15,1.07,1A2.21,2.21,0,0,1,144.23,202.57Z"/><path class="f" d="M146,205c-.07,0,0-.39.06-.84,0-.22.14-.45.13-.52s-.1-.13-.11-.15.16-.12.28.09a1.24,1.24,0,0,1-.06.63C146.21,204.69,146.07,205.05,146,205Z"/><path class="f" d="M145.75,206.42a6.72,6.72,0,0,0-1.24-2.23,14.93,14.93,0,0,0-2.1-1.82l-2.7-2.14c-1-.76-1.85-1.5-2.71-2.08a23.18,23.18,0,0,0-2.57-1.06l-1.77-.68a3.16,3.16,0,0,1-.64-.28,5.55,5.55,0,0,1,.67.19l1.8.6a21.24,21.24,0,0,1,2.63,1c.9.59,1.8,1.33,2.75,2.09l2.68,2.15a13.69,13.69,0,0,1,2.09,1.89,5.43,5.43,0,0,1,1,1.66A2.46,2.46,0,0,1,145.75,206.42Z"/><path class="f" d="M140.13,200.15a7.63,7.63,0,0,1-1-.84c-.59-.53-1.36-1.32-2.24-2.12a4.84,4.84,0,0,0-2.77-1.08,11.44,11.44,0,0,1-1.27-.11,4.53,4.53,0,0,1,1.29-.06,4.65,4.65,0,0,1,2.91,1.06c.91.82,1.64,1.62,2.2,2.19A5.68,5.68,0,0,1,140.13,200.15Z"/><path class="f" d="M145.58,204.57a4.68,4.68,0,0,1-.75-.61c-.46-.39-1.11-.89-1.83-1.45a13.47,13.47,0,0,1-1.73-1.59,2.91,2.91,0,0,1-.56-.8s.26.26.69.68,1,.94,1.76,1.51A10.73,10.73,0,0,1,145.58,204.57Z"/><path class="f" d="M148.4,204c-.07,0-.06-.33-.24-.66s-.41-.54-.37-.6.39.08.6.49S148.46,204,148.4,204Z"/><path class="f" d="M146.42,208.32a4.15,4.15,0,0,0,1.13-1.95,7.44,7.44,0,0,0,.23-1.61,2.33,2.33,0,0,0-.15-.64s.27.17.33.63a5.3,5.3,0,0,1-.17,1.68,3.13,3.13,0,0,1-.79,1.5C146.69,208.24,146.43,208.35,146.42,208.32Z"/><path class="f" d="M146,207.89a10.27,10.27,0,0,1,.3-1.26,2.66,2.66,0,0,0-.19-1.21c0-.08.56.45.43,1.25A2.15,2.15,0,0,1,146,207.89Z"/><path class="f" d="M139.74,201a7.21,7.21,0,0,1-1.15-.81,12.31,12.31,0,0,0-1.25-.83,14.48,14.48,0,0,0-1.77-.53c-1.27-.35-2.43-.68-3.26-.93a6.86,6.86,0,0,1-1.33-.46,8.4,8.4,0,0,1,1.38.29c.84.21,2,.51,3.28.86a12.28,12.28,0,0,1,1.8.56,9,9,0,0,1,1.26.91A6.74,6.74,0,0,1,139.74,201Z"/><path class="f" d="M145.19,207.12s-.18-.39-.51-1a10.94,10.94,0,0,0-1.6-2.15c-1.47-1.5-2.85-2.55-2.79-2.62a4.27,4.27,0,0,1,.93.64,17.15,17.15,0,0,1,2,1.81,8.94,8.94,0,0,1,1.58,2.24A3.09,3.09,0,0,1,145.19,207.12Z"/><path class="f" d="M143.51,205.86a3.35,3.35,0,0,1-.45-.39l-1.16-1.13a23,23,0,0,0-4-3.45,14.28,14.28,0,0,0-5-1.58c-.68-.1-1.22-.17-1.6-.21a2.73,2.73,0,0,1-.59-.1,3.06,3.06,0,0,1,.6,0c.38,0,.93.05,1.61.13a13.67,13.67,0,0,1,5.12,1.55,19.72,19.72,0,0,1,4,3.54l1.11,1.18A2.19,2.19,0,0,1,143.51,205.86Z"/><path class="f" d="M130.86,196.88a6.87,6.87,0,0,1,2.38.41,7,7,0,0,1,2.21,1c0,.06-1-.35-2.29-.73S130.85,197,130.86,196.88Z"/><path class="f" d="M136.85,201.33a8.1,8.1,0,0,0-1-.39c-.65-.18-1.58-.39-2.61-.59s-2-.33-2.64-.43a5.61,5.61,0,0,1-1.1-.19,4.41,4.41,0,0,1,1.11,0,24,24,0,0,1,2.68.37,21.48,21.48,0,0,1,2.62.66C136.55,201,136.88,201.3,136.85,201.33Z"/><path class="f" d="M126.48,207.69a1.83,1.83,0,0,1,0-.59,7.83,7.83,0,0,1,.22-1.6,6.39,6.39,0,0,1,1-2.18,5.61,5.61,0,0,1,2.32-1.81,6.12,6.12,0,0,1,2.91-.37,15.6,15.6,0,0,1,2.36.33,11.64,11.64,0,0,1,1.54.48,2,2,0,0,1,.53.26s-.79-.3-2.11-.56a15.81,15.81,0,0,0-2.34-.28,6.13,6.13,0,0,0-2.8.37,5.54,5.54,0,0,0-2.22,1.72,6.32,6.32,0,0,0-1,2.09A15.2,15.2,0,0,0,126.48,207.69Z"/><path class="f" d="M127.09,205.68a4.69,4.69,0,0,1,.79-1,10.41,10.41,0,0,1,2.36-2,5.48,5.48,0,0,1,3.07-.39,4.81,4.81,0,0,1,1.25.25,9,9,0,0,1-1.27-.07,5.76,5.76,0,0,0-2.93.43,12.51,12.51,0,0,0-2.36,1.9A9.78,9.78,0,0,1,127.09,205.68Z"/><path class="f" d="M127.12,215.8s-.08-.12-.19-.37a7.06,7.06,0,0,1-.36-1.08,10.5,10.5,0,0,1-.29-3.72,10.31,10.31,0,0,1,1-3.59,7.29,7.29,0,0,1,.56-1c.15-.23.25-.34.26-.33s-.28.52-.66,1.38a11.49,11.49,0,0,0-.94,3.54,11.76,11.76,0,0,0,.21,3.66C127,215.23,127.16,215.79,127.12,215.8Z"/><path class="f" d="M126.62,207.77c-.07,0,0-.41.15-.87s.32-.82.39-.8,0,.41-.16.87S126.68,207.79,126.62,207.77Z"/><path class="f" d="M144.27,208.44a7.08,7.08,0,0,1-1-.94c-.62-.6-1.46-1.45-2.38-2.4s-1.65-1.9-2.29-2.46-1.08-.87-1.06-.9.13,0,.34.16a5.28,5.28,0,0,1,.84.6c.69.55,1.41,1.52,2.36,2.43s1.73,1.81,2.32,2.45A8.89,8.89,0,0,1,144.27,208.44Z"/><path class="f" d="M145.53,208.36s-.1-.17-.3-.39a6.15,6.15,0,0,0-.91-.75,6.45,6.45,0,0,1-1.3-1.14,5.72,5.72,0,0,1,1.45.94,3.89,3.89,0,0,1,.9.84C145.55,208.14,145.56,208.36,145.53,208.36Z"/><path class="f" d="M128.67,208a3.28,3.28,0,0,1,.2-.8,5.91,5.91,0,0,1,1.22-1.88,7.47,7.47,0,0,1,2.8-1.78,6.7,6.7,0,0,1,1.94-.42,4.92,4.92,0,0,1,2.09.4,13.27,13.27,0,0,1,3.46,2.14c1,.78,1.79,1.54,2.51,2.15l1.67,1.48a6.55,6.55,0,0,1,.59.57,5,5,0,0,1-.66-.49l-1.72-1.42c-.72-.59-1.56-1.34-2.54-2.11a13.75,13.75,0,0,0-3.4-2.09,4.7,4.7,0,0,0-2-.38,6.68,6.68,0,0,0-1.87.38,7.51,7.51,0,0,0-2.75,1.7A6.22,6.22,0,0,0,128.67,208Z"/><path class="f" d="M128,211.76a1.36,1.36,0,0,1-.25-.37,3.77,3.77,0,0,1-.37-1.15,7.33,7.33,0,0,1,.62-3.9,5.38,5.38,0,0,1,1.22-1.84,5.15,5.15,0,0,1,1.51-1,4.68,4.68,0,0,1,1.16-.33,1.23,1.23,0,0,1,.44,0,12.67,12.67,0,0,0-1.53.52,5,5,0,0,0-2.57,2.75,7.81,7.81,0,0,0-.68,3.78A6.46,6.46,0,0,0,128,211.76Z"/><path class="f" d="M128.17,211s0-.14-.06-.39a4.83,4.83,0,0,1,.08-1.05,6.22,6.22,0,0,1,1.54-3.12,7.2,7.2,0,0,1,2.91-1.9,6.11,6.11,0,0,1,1-.27,1.53,1.53,0,0,1,.38,0s-.53.15-1.34.47a7.78,7.78,0,0,0-2.79,1.91,6.57,6.57,0,0,0-1.56,3C128.17,210.4,128.21,211,128.17,211Z"/><path class="f" d="M128.52,210.06a3,3,0,0,1,.78-.8,6.44,6.44,0,0,1,2.41-1.19,7.27,7.27,0,0,1,2.68-.22,3.61,3.61,0,0,1,1.09.26,10.7,10.7,0,0,0-3.71.2A9.05,9.05,0,0,0,128.52,210.06Z"/><path class="f" d="M127.49,214.29a6.24,6.24,0,0,1,.44-1.68,7,7,0,0,1,.68-1.61,5.85,5.85,0,0,1-.44,1.69A6.09,6.09,0,0,1,127.49,214.29Z"/><path class="f" d="M127.7,213.61s-.17-.06-.32-.28a2.46,2.46,0,0,1-.32-1,3.8,3.8,0,0,1,0-1.39,4,4,0,0,1,.3,1.35A4.41,4.41,0,0,0,127.7,213.61Z"/><path class="f" d="M133.18,206.17a1.27,1.27,0,0,1,.42-.33,3.78,3.78,0,0,1,1.37-.51,6.94,6.94,0,0,1,4.65,1,20.71,20.71,0,0,1,3.82,2.89c.45.42.8.77,1,1a2,2,0,0,1,.35.4,2.8,2.8,0,0,1-.42-.33l-1.09-.95a24.32,24.32,0,0,0-3.82-2.8,7.1,7.1,0,0,0-4.5-1A5.21,5.21,0,0,0,133.18,206.17Z"/><path class="f" d="M132.82,207.43s.13-.1.38-.23a6.25,6.25,0,0,1,1.12-.42,7.85,7.85,0,0,1,4-.05,7.15,7.15,0,0,1,3.42,2l.85.84c.2.2.31.31.3.33a9,9,0,0,1-1.27-1,7.58,7.58,0,0,0-3.36-1.84,8.54,8.54,0,0,0-3.84,0C133.39,207.17,132.84,207.47,132.82,207.43Z"/><path class="f" d="M138.75,204.94s-.59-.1-1.55-.24a6.2,6.2,0,0,0-1.67,0,6.36,6.36,0,0,0-1.89.75,15.1,15.1,0,0,0-3.12,2.1c-.71.65-1,1.16-1.07,1.14a1.47,1.47,0,0,1,.21-.38,6.33,6.33,0,0,1,.74-.89,13,13,0,0,1,3.12-2.19,5.88,5.88,0,0,1,2-.75,5.41,5.41,0,0,1,1.73.05,10.8,10.8,0,0,1,1.12.26C138.62,204.87,138.76,204.92,138.75,204.94Z"/><path class="f" d="M136.53,204.06c0,.06-.4-.06-.87-.05s-.84.12-.87.06.33-.31.87-.31S136.57,204,136.53,204.06Z"/><path class="f" d="M140,205.31a7.91,7.91,0,0,0-1.94-1.82,10.82,10.82,0,0,0-2.49-1,4.46,4.46,0,0,1,2.62.76A4,4,0,0,1,140,205.31Z"/><path class="f" d="M133.68,208.62a4.22,4.22,0,0,1-.62.11,6.8,6.8,0,0,0-1.41.54l-1.39.62a3.18,3.18,0,0,0-.52.34s.07-.28.43-.5.83-.43,1.38-.69a4.76,4.76,0,0,1,1.48-.48C133.44,208.52,133.68,208.59,133.68,208.62Z"/><path class="f" d="M141.05,210a20.54,20.54,0,0,0-2.27-1.16c-1.32-.51-2.47-.59-2.47-.67a5.45,5.45,0,0,1,2.56.43A5.14,5.14,0,0,1,141.05,210Z"/><path class="f" d="M138.48,206.42a6.45,6.45,0,0,0-1.1-.3,9.21,9.21,0,0,0-2.76.18,8.07,8.07,0,0,0-2.6.91c-.61.36-.91.7-.94.67a2.5,2.5,0,0,1,.84-.82,7.12,7.12,0,0,1,2.65-1,8,8,0,0,1,2.84-.1A1.83,1.83,0,0,1,138.48,206.42Z"/><path class="f" d="M128.1,202.27a1.76,1.76,0,0,1,.6-1.29,1.83,1.83,0,0,1,1.25-.66c0,.07-.56.3-1.07.84S128.18,202.29,128.1,202.27Z"/><path class="f" d="M128.94,200s.13-.36.6-.73a3.91,3.91,0,0,1,2.17-.76,4.58,4.58,0,0,1,3.1.77s-.33-.15-.88-.28a7.38,7.38,0,0,0-2.21-.24,4.18,4.18,0,0,0-2.07.65C129.18,199.72,129,200,128.94,200Z"/><path class="f" d="M138,193.64c0-.06.4-.24,1-.24s1,.18,1,.24-.44,0-1,0S138.05,193.71,138,193.64Z"/><path class="f" d="M137,193.67s-.35,0-.9.1a8.54,8.54,0,0,0-2.08.64c-.77.36-1.57.6-1.87,1a.71.71,0,0,0,0,.79s-.1,0-.18-.18a.77.77,0,0,1,.06-.71,1.83,1.83,0,0,1,.81-.64c.34-.17.71-.35,1.11-.52a6.86,6.86,0,0,1,2.16-.58A2,2,0,0,1,137,193.67Z"/><path class="f" d="M142.51,205.73a2,2,0,0,1-.8-.42,15.28,15.28,0,0,1-1.58-1.48,17.34,17.34,0,0,1-2-2.27,21.83,21.83,0,0,1,2.23,2.09c.59.6,1.1,1.17,1.51,1.52S142.53,205.7,142.51,205.73Z"/><path class="f" d="M144,206.38c-.07,0-.26-.67-.75-1.39s-1-1.18-1-1.24a2.69,2.69,0,0,1,1.18,1.11A2.44,2.44,0,0,1,144,206.38Z"/><path class="f" d="M145.67,210s-.19,0-.38-.26a3.15,3.15,0,0,1-.5-1,2.73,2.73,0,0,0-.48-.91c-.17-.2-.32-.28-.31-.32s.2,0,.43.19a2.25,2.25,0,0,1,.6.95,5.29,5.29,0,0,0,.4,1C145.57,209.87,145.69,210,145.67,210Z"/><path class="f" d="M129.6,208.05a1.31,1.31,0,0,1,.23-.74,4,4,0,0,1,1.24-1.38,7.46,7.46,0,0,1,1.62-.89,2.2,2.2,0,0,1,.72-.22c.05.08-1,.5-2.2,1.31A5,5,0,0,0,130,207.4C129.73,207.78,129.64,208.06,129.6,208.05Z"/><path class="f" d="M135.59,211s-.29,0-.71.21a6.56,6.56,0,0,0-1.49,1,3.6,3.6,0,0,1-1.67.84c-.49.07-.78-.06-.77-.09a6.39,6.39,0,0,0,.74-.08,4.41,4.41,0,0,0,1.54-.86,5.3,5.3,0,0,1,1.59-1C135.29,210.85,135.6,210.92,135.59,211Z"/><path class="f" d="M139.07,214.9a2.86,2.86,0,0,0-2.3-.53,2.48,2.48,0,0,0-1.5.76,1.88,1.88,0,0,0-.28.65s-.13-.32.14-.75a2.34,2.34,0,0,1,1.59-.9,2.2,2.2,0,0,1,1.8.25C138.91,214.65,139.09,214.88,139.07,214.9Z"/><path class="f" d="M143.34,217.89a5.15,5.15,0,0,0,.42-2,5.76,5.76,0,0,0-.6-2,2.66,2.66,0,0,1,.85,2A2.57,2.57,0,0,1,143.34,217.89Z"/><path class="f" d="M144.42,215.74a5.34,5.34,0,0,1,.21-1.21,6.36,6.36,0,0,1,.22-1.21,2.17,2.17,0,0,1,0,1.25A2.3,2.3,0,0,1,144.42,215.74Z"/><path class="f" d="M134.62,210.13a17.49,17.49,0,0,0-2.5.44,13.67,13.67,0,0,0-2.3,1.06,4.57,4.57,0,0,1,2.23-1.3A5,5,0,0,1,134.62,210.13Z"/><path class="f" d="M137.71,202.38s-.18.16-.52.14-.78,0-1.27-.1a6.17,6.17,0,0,1-1.77-.32,6.86,6.86,0,0,1,1.8.07c.49.06.94.12,1.25.18S137.7,202.35,137.71,202.38Z"/><path class="f" d="M136.7,201.62s.1,0,.18-.07a.3.3,0,0,0,.15-.29c-.08-.29-.4-.51-.34-.57s.11,0,.23.06a.74.74,0,0,1,.36.46.45.45,0,0,1-.35.51C136.75,201.75,136.68,201.64,136.7,201.62Z"/><path class="f" d="M129.21,201.24a2.22,2.22,0,0,1,1.57-.83,2.3,2.3,0,0,1,1.76.26,8.25,8.25,0,0,0-1.72,0A6.79,6.79,0,0,0,129.21,201.24Z"/><path class="f" d="M133.52,194.78a2.13,2.13,0,0,1,2.42.58c-.05,0-.51-.28-1.18-.43S133.54,194.85,133.52,194.78Z"/><path class="f" d="M145.34,204a6.17,6.17,0,0,0-.11-1.26,8.27,8.27,0,0,0-.54-1.15c0-.06.58.32.79,1.08A1.52,1.52,0,0,1,145.34,204Z"/><path class="f" d="M147.45,207.36a2.17,2.17,0,0,1-.38-.64,5.2,5.2,0,0,1-.54-1.72,12.7,12.7,0,0,1,.14-1.78,6.31,6.31,0,0,0,0-.72s.19.25.2.72-.13,1.1-.07,1.76a7,7,0,0,0,.45,1.67C147.39,207.08,147.49,207.34,147.45,207.36Z"/><path class="f" d="M139.53,220.36s.26.15.37.59a1.29,1.29,0,0,1-.78,1.45,2.41,2.41,0,0,1-1.68,0c-.41-.13-.63-.25-.62-.28s.26,0,.66.11a2.54,2.54,0,0,0,1.53-.07,1.17,1.17,0,0,0,.72-1.19C139.68,220.59,139.49,220.39,139.53,220.36Z"/><path class="f" d="M138.5,220.06s.2.07.39.34a1.62,1.62,0,0,1,.25,1.23.72.72,0,0,1-.48.57.55.55,0,0,1-.59-.18,3.3,3.3,0,0,0-.34-.36s.25,0,.46.23a.43.43,0,0,0,.71-.32A2.26,2.26,0,0,0,138.5,220.06Z"/><path class="f" d="M139.57,222.55c0-.06.39-.42.65-1a10,10,0,0,0,.27-1.18,1.41,1.41,0,0,1,0,1.28C140.15,222.3,139.59,222.61,139.57,222.55Z"/></g><g class="h"><path class="f" d="M117.57,198.57c.06,0,.47,1.05,1.33,2.68a14.91,14.91,0,0,0,4.57,5.42,10.65,10.65,0,0,0,3.54,1.61,5.4,5.4,0,0,0,3.12,0,7.31,7.31,0,0,0,1.88-1c.42-.31.65-.48.67-.45s-.18.23-.57.57a6.87,6.87,0,0,1-1.88,1.19,5.63,5.63,0,0,1-3.3.08,10.46,10.46,0,0,1-3.69-1.64,14.18,14.18,0,0,1-4.59-5.61,21.12,21.12,0,0,1-.86-2A2.74,2.74,0,0,1,117.57,198.57Z"/><path class="f" d="M118.82,194.51a.87.87,0,0,1,.07-.28,3.22,3.22,0,0,1,.38-.73,4.55,4.55,0,0,1,2.45-1.76,9.85,9.85,0,0,1,2.06-.34,8.63,8.63,0,0,1,2.41.11,11.82,11.82,0,0,1,4.8,2.65,14.6,14.6,0,0,1,2,2.05,7,7,0,0,1,1.29,2.35,6.47,6.47,0,0,1,.13,2.42,9.8,9.8,0,0,1-1.84,4.72,7.94,7.94,0,0,1-.52.63,1.17,1.17,0,0,1-.21.2,14,14,0,0,0,1.85-3.59,9.71,9.71,0,0,0,.39-2,6.13,6.13,0,0,0-.15-2.28,6.66,6.66,0,0,0-1.25-2.21,14.36,14.36,0,0,0-1.92-2,11.94,11.94,0,0,0-4.61-2.6,8.34,8.34,0,0,0-2.32-.13,10,10,0,0,0-2,.28,4.53,4.53,0,0,0-2.39,1.58C119,194.14,118.86,194.53,118.82,194.51Z"/><path class="f" d="M129.91,205.24a6.47,6.47,0,0,0,1.14-2.61,10.05,10.05,0,0,0,0-3.11,7.44,7.44,0,0,0-1.17-3.55,10.26,10.26,0,0,0-3-2.25,5,5,0,0,0-2.94-.75,11.16,11.16,0,0,0-2.09.33,3.13,3.13,0,0,1-.77.14,3.12,3.12,0,0,1,.73-.29,9.42,9.42,0,0,1,2.11-.46,5.15,5.15,0,0,1,3.13.71,10.1,10.1,0,0,1,3.18,2.33,7.58,7.58,0,0,1,1.22,3.75,10.15,10.15,0,0,1-.1,3.21,5.12,5.12,0,0,1-.87,2C130.15,205.09,129.92,205.26,129.91,205.24Z"/><path class="f" d="M128.3,194.15c0-.1.14-.28.34-.47s.38-.36.48-.31.06.35-.21.6S128.34,194.25,128.3,194.15Z"/><path class="f" d="M132.25,203.75a6.86,6.86,0,0,1,0-1.49,14.84,14.84,0,0,0-.25-3.52,8.14,8.14,0,0,0-1.41-3.17c-.54-.72-1-1.08-.94-1.13a3.1,3.1,0,0,1,1.16.95,7.4,7.4,0,0,1,1.58,3.27,11.14,11.14,0,0,1,.14,3.62A4.68,4.68,0,0,1,132.25,203.75Z"/><path class="f" d="M132.41,203.62a10.17,10.17,0,0,1,.35-1,6.48,6.48,0,0,0,.22-2.38c-.08-.95-.2-1.83-.29-2.44s-.28-1-.23-1,.33.29.51.93a15.15,15.15,0,0,1,.4,2.47,5.37,5.37,0,0,1-.35,2.51C132.76,203.37,132.45,203.65,132.41,203.62Z"/><path class="f" d="M127.42,206.35c0-.06.54-.4,1.27-1.17a6.82,6.82,0,0,0,1.83-3.59,6.67,6.67,0,0,0-.66-4c-.47-.95-.93-1.44-.88-1.49a3.7,3.7,0,0,1,1.13,1.35,6.42,6.42,0,0,1,.8,4.16,6.57,6.57,0,0,1-2,3.73A3.67,3.67,0,0,1,127.42,206.35Z"/><path class="f" d="M119,195.78a6.14,6.14,0,0,1,.85-1.29,2.56,2.56,0,0,1,1.43-1,5.64,5.64,0,0,1,2.08-.19,7.85,7.85,0,0,1,3.54,1.24,4.22,4.22,0,0,1,1.21,1,9.73,9.73,0,0,1-1.35-.73,9.11,9.11,0,0,0-3.43-1.09c-1.39-.11-2.72.19-3.27.95S119,195.82,119,195.78Z"/><path class="f" d="M118.37,198.31a5.43,5.43,0,0,1,2-2.93,4.22,4.22,0,0,1,1.2-.77,3,3,0,0,1,1.16-.19,2.18,2.18,0,0,1,1,.17,3.8,3.8,0,0,1-1,.11,3.54,3.54,0,0,0-1,.24,5.26,5.26,0,0,0-1.09.74A16.31,16.31,0,0,0,118.37,198.31Z"/><path class="f" d="M125.19,206.49s.35.26,1,.49a3.72,3.72,0,0,0,2.49,0,4.91,4.91,0,0,0,2.07-1.46c.43-.5.57-.91.63-.89s0,.47-.4,1.06a4.55,4.55,0,0,1-2.17,1.67,3.58,3.58,0,0,1-2.73-.1C125.4,206.92,125.15,206.52,125.19,206.49Z"/><path class="f" d="M128.36,208.32c0-.06.34,0,.81-.25a4.49,4.49,0,0,0,1.54-1.28c1.06-1.23,1.59-2.46,1.69-2.42A5.08,5.08,0,0,1,131,207a3.82,3.82,0,0,1-1.74,1.29C128.71,208.49,128.35,208.36,128.36,208.32Z"/><path class="f" d="M121.67,204.86a18,18,0,0,0,2,.7,6.41,6.41,0,0,0,2.28.15,3.19,3.19,0,0,0,2.16-1.54,7.75,7.75,0,0,0,1.19-4.9,19.23,19.23,0,0,0-.43-2.11s.14.17.28.52a6.32,6.32,0,0,1,.43,1.56,7.52,7.52,0,0,1-1.14,5.15,3.47,3.47,0,0,1-2.43,1.68,6.2,6.2,0,0,1-2.41-.24,6.28,6.28,0,0,1-1.49-.62C121.82,205,121.66,204.88,121.67,204.86Z"/><path class="f" d="M122,205.13c0-.07.71.16,1.85.13a4.21,4.21,0,0,0,1.87-.44,5.72,5.72,0,0,0,1.71-1.66,6.22,6.22,0,0,0,1-4.17,17,17,0,0,0-.4-1.8s.12.14.27.43a5.14,5.14,0,0,1,.41,1.33,6.13,6.13,0,0,1-1,4.43,5.85,5.85,0,0,1-1.86,1.76,4.15,4.15,0,0,1-2,.4A3.78,3.78,0,0,1,122,205.13Z"/><path class="f" d="M127.31,198.65c-.12,0-.2-.79-.64-1.63s-1-1.42-.91-1.51.8.39,1.27,1.33A2.26,2.26,0,0,1,127.31,198.65Z"/><path class="f" d="M124,203.51c0-.07.34-.07.81-.22s.8-.75,1.19-1.46a28.87,28.87,0,0,1,1.36-2.57,6.69,6.69,0,0,1-1,2.76,7.91,7.91,0,0,1-.61,1,1.43,1.43,0,0,1-.85.55C124.36,203.66,124,203.55,124,203.51Z"/><path class="f" d="M126.05,203.38a11,11,0,0,1,1-1.7,12,12,0,0,1,1-1.71,3.25,3.25,0,0,1-.61,1.91C126.83,202.86,126.12,203.45,126.05,203.38Z"/><path class="f" d="M121.76,200.89a3.45,3.45,0,0,1,.35-1c.13-.31.28-.66.49-1.07a1.49,1.49,0,0,1,1.28-.89.53.53,0,0,1,.45.22.56.56,0,0,1,0,.5l-.12.32c-.08.21-.17.41-.25.59a10.43,10.43,0,0,1-.5,1c-.32.52-.57.8-.61.77a3.41,3.41,0,0,1,.37-.9c.12-.27.27-.6.41-1l.22-.58.11-.31a.91.91,0,0,0,0-.17.42.42,0,0,0-.13,0,1.2,1.2,0,0,0-1,.67l-.55,1C122,200.57,121.81,200.92,121.76,200.89Z"/><path class="f" d="M122.19,203.16a7.05,7.05,0,0,1,.92-1.49c.3-.44.69-.95,1.08-1.54a5.4,5.4,0,0,0,.46-1,1.26,1.26,0,0,0,0-1,.87.87,0,0,0-.89-.24,1.75,1.75,0,0,0-.87.48,7.46,7.46,0,0,0-1,1.54,8.92,8.92,0,0,1-.93,1.48,7.13,7.13,0,0,1,.68-1.61,6.43,6.43,0,0,1,1-1.67,2.07,2.07,0,0,1,1.06-.6,1.2,1.2,0,0,1,1.29.4,1.59,1.59,0,0,1,0,1.33,5.61,5.61,0,0,1-.52,1c-.41.59-.83,1.09-1.16,1.51A7.7,7.7,0,0,1,122.19,203.16Z"/><path class="f" d="M119.35,201.33s-.1-.36,0-.92a4.5,4.5,0,0,1,1-1.95,5.13,5.13,0,0,1,2.57-1.69,28.47,28.47,0,0,0-2.27,2A7.24,7.24,0,0,0,119.35,201.33Z"/><path class="f" d="M120.52,200.08c-.1-.05.27-.88,1.07-1.63a5,5,0,0,1,1.13-.82c.35-.17.62-.1.6,0s-.2.09-.45.29-.63.51-1,.87C121.11,199.44,120.62,200.13,120.52,200.08Z"/><path class="f" d="M121.32,192.65s.24-.35.85-.59a4.58,4.58,0,0,1,2.48-.17,8.22,8.22,0,0,1,2.35.8c.58.33.71.8.65.8a3,3,0,0,0-.78-.55,12.7,12.7,0,0,0-2.29-.66,5.36,5.36,0,0,0-2.32,0C121.68,192.48,121.36,192.7,121.32,192.65Z"/><path class="f" d="M123.35,203.51a8.09,8.09,0,0,0,1.32-.95,7.57,7.57,0,0,0,1.74-3.43,2.74,2.74,0,0,0-.46-2,3.25,3.25,0,0,0-1.3-1.08,9.77,9.77,0,0,0-1.56-.45,2.59,2.59,0,0,1,1.67.19,3.41,3.41,0,0,1,1.49,1.13,3,3,0,0,1,.55,2.23,7,7,0,0,1-1.94,3.58A2.42,2.42,0,0,1,123.35,203.51Z"/><path class="f" d="M123,202.73s.23-.28.65-.64a7.87,7.87,0,0,0,1.44-1.55,3.37,3.37,0,0,0,.51-2c0-.54-.14-.87-.08-.89s.26.28.36.86a3.12,3.12,0,0,1-.46,2.21,5.52,5.52,0,0,1-1.6,1.56C123.37,202.63,123.05,202.78,123,202.73Z"/><path class="f" d="M118.08,199.32s.22-.43.68-1l.84-1.08a3.55,3.55,0,0,1,1.25-1.17,2.87,2.87,0,0,1,1.74-.13,5.53,5.53,0,0,1,1.32.43c.75.34,1,.86.92.88a3.88,3.88,0,0,0-1-.62,4.14,4.14,0,0,0-2.78-.2,3.72,3.72,0,0,0-1.15,1.05l-.89,1A4.51,4.51,0,0,1,118.08,199.32Z"/><path class="f" d="M135.35,199.18a5.56,5.56,0,0,1-.09-.9,9.17,9.17,0,0,0-.46-2.38,5,5,0,0,0-2.22-2.67,14.89,14.89,0,0,0-4.05-1.72,12.41,12.41,0,0,0-7.87.37,12.79,12.79,0,0,0-2.87,1.7,3,3,0,0,1,.64-.66,9.19,9.19,0,0,1,2.12-1.3,12.27,12.27,0,0,1,8.08-.5,14.8,14.8,0,0,1,4.15,1.8,5.25,5.25,0,0,1,2.29,2.89,8.29,8.29,0,0,1,.35,2.47A2.82,2.82,0,0,1,135.35,199.18Z"/><path class="f" d="M131.48,193.48a2.09,2.09,0,0,1,1.21.39,4.75,4.75,0,0,1,2,2.32,7.63,7.63,0,0,1,.49,3,3.49,3.49,0,0,1-.15,1.25,4.72,4.72,0,0,1-.13-1.24,9.29,9.29,0,0,0-.57-2.87,5.22,5.22,0,0,0-1.76-2.24C131.93,193.67,131.46,193.55,131.48,193.48Z"/><path class="f" d="M135.61,194.48a4.8,4.8,0,0,0-1.7-2.34c-1.44-1.14-4-1.71-6.79-1.87a18.42,18.42,0,0,0-7.07,1c-1.73.63-2.67,1.3-2.71,1.24a3,3,0,0,1,.64-.5,12.52,12.52,0,0,1,2-1,17.08,17.08,0,0,1,7.18-1.1c2.84.16,5.47.78,7,2a4.46,4.46,0,0,1,1.36,1.76A1.56,1.56,0,0,1,135.61,194.48Z"/><path class="f" d="M135.25,204a29.53,29.53,0,0,0,.7-4.23,30.31,30.31,0,0,0-.31-4.28,10.46,10.46,0,0,1-.39,8.51Z"/><path class="f" d="M116.47,191.85s.1-.19.38-.46a6.17,6.17,0,0,1,1.3-.94,12.78,12.78,0,0,1,5.07-1.38,30.33,30.33,0,0,1,5.24-.08,5.68,5.68,0,0,1,2.12.53c0,.07-.82-.18-2.14-.25a44,44,0,0,0-5.19.2,14.08,14.08,0,0,0-5,1.23A15.3,15.3,0,0,0,116.47,191.85Z"/><path class="f" d="M117.69,192.18a4.27,4.27,0,0,1,1.82-1.52,4.35,4.35,0,0,1,2.26-.71A20.32,20.32,0,0,1,119.7,191C118.58,191.61,117.77,192.26,117.69,192.18Z"/><path class="f" d="M130,187.89a12.19,12.19,0,0,0-1.87-.19,28,28,0,0,0-4.55.48,25.23,25.23,0,0,0-4.39,1.28,18.1,18.1,0,0,1-1.79.69,7,7,0,0,1,1.68-1,20,20,0,0,1,4.42-1.41,20.39,20.39,0,0,1,4.64-.37A3.29,3.29,0,0,1,130,187.89Z"/><path class="f" d="M115.16,182a2.23,2.23,0,0,1-.13-.59,13.55,13.55,0,0,1-.13-1.63,7.49,7.49,0,0,1,.36-2.43,8.69,8.69,0,0,1,1.45-2.63,16.05,16.05,0,0,1,4.08-3.55,5.58,5.58,0,0,1,2.06-.89c0,.06-.78.35-1.91,1.12A18.84,18.84,0,0,0,117,175a9,9,0,0,0-1.43,2.51,7.71,7.71,0,0,0-.42,2.31C115.15,181.17,115.23,182,115.16,182Z"/><path class="f" d="M117.9,186.91c0,.05-.35,0-.86-.14a6,6,0,0,1-.88-.37,2.22,2.22,0,0,1-.5-.34,1.2,1.2,0,0,1-.27-.65,10.78,10.78,0,0,1-.07-2.93,10.9,10.9,0,0,1,.47,2.88c0,.39.23.53.55.72s.57.32.8.43C117.61,186.73,117.92,186.86,117.9,186.91Z"/><path class="f" d="M117.07,190s-.22,0-.4-.3a3.11,3.11,0,0,1-.41-1.07,3.36,3.36,0,0,1-.21-1.56c.11,0,.37.63.59,1.46.11.43.18.8.27,1S117.1,190,117.07,190Z"/><path class="f" d="M118.56,173.55s.2-.33.72-.66a19.72,19.72,0,0,1,2.07-1c1.61-.77,2.83-1.58,2.89-1.49a7.8,7.8,0,0,1-2.72,1.85c-.82.4-1.59.66-2.11.92S118.6,173.6,118.56,173.55Z"/><path class="f" d="M116.53,178.38s-.12-.16-.11-.5a2,2,0,0,1,.58-1.24,10.11,10.11,0,0,1,1.57-1.24l2-1.37c1.42-1,2.71-1.82,3.66-2.43a8,8,0,0,1,1.58-.9,8.38,8.38,0,0,1-1.42,1.14c-.91.66-2.18,1.55-3.59,2.52l-2,1.34a13.43,13.43,0,0,0-1.58,1.13,2.11,2.11,0,0,0-.63,1.07C116.52,178.2,116.56,178.37,116.53,178.38Z"/><path class="f" d="M124.39,173.93c0-.06.17-.16.41-.38s.54-.6.93-1c.76-.75,1.44-1.3,1.52-1.22s-.48.75-1.24,1.5a6.8,6.8,0,0,1-1,.92C124.64,174,124.4,174,124.39,173.93Z"/><path class="f" d="M116.87,181.28s0-.18,0-.49-.11-.75-.12-1.34a2.71,2.71,0,0,1,.87-1.86,14.49,14.49,0,0,1,1.9-1.55c1.38-1,2.65-1.94,3.58-2.58a8.18,8.18,0,0,1,1.55-1,8.74,8.74,0,0,1-1.39,1.2c-.88.7-2.12,1.64-3.5,2.67s-2.72,2-2.73,3.1c0,.54,0,1,0,1.33A1,1,0,0,1,116.87,181.28Z"/><path class="f" d="M116.85,177.36s0-.29.15-.68a4.91,4.91,0,0,1,1-1.28c.47-.43.88-.8,1.15-1.09s.42-.5.48-.48,0,.29-.26.65a7.14,7.14,0,0,1-1.09,1.21,8.9,8.9,0,0,0-1.08,1.14C117,177.15,116.91,177.38,116.85,177.36Z"/><path class="f" d="M120.66,173.73c-.12-.06.24-.62.86-1s1-.66,1.08-.62-.25.62-.87,1S120.75,173.78,120.66,173.73Z"/><path class="f" d="M124.08,172.54c0-.1.71-.49,1.61-1a6.4,6.4,0,0,1,1.69-.86c.06.09-.57.68-1.5,1.2A3.72,3.72,0,0,1,124.08,172.54Z"/><path class="f" d="M118,179.71a4.83,4.83,0,0,0,1.47-1.28,13.09,13.09,0,0,1,1.44-1.65A16,16,0,0,1,123,175.1c1.58-1.06,3.06-1.9,4.09-2.57a15.52,15.52,0,0,1,1.69-1.08,7.38,7.38,0,0,1-1.53,1.31c-1,.74-2.47,1.62-4,2.67a19.27,19.27,0,0,0-2.08,1.62,18.4,18.4,0,0,0-1.47,1.56,3.88,3.88,0,0,1-1.15.95C118.23,179.71,118,179.73,118,179.71Z"/><path class="f" d="M120.5,176.23c-.08-.08.49-.7,1.35-1.28a3.77,3.77,0,0,1,1.69-.8c0,.1-.64.56-1.47,1.13S120.57,176.32,120.5,176.23Z"/><path class="f" d="M117.54,178.73c0-.11.58-.39,1.22-.91s1.06-1,1.16-1-.19.75-.91,1.31S117.56,178.83,117.54,178.73Z"/><path class="f" d="M124.77,175.64a17.44,17.44,0,0,1,2.78-2.29,17.47,17.47,0,0,1,3-2,16.24,16.24,0,0,1-2.77,2.3A15.87,15.87,0,0,1,124.77,175.64Z"/><path class="f" d="M132.48,173.25a16.55,16.55,0,0,0-1.77.64c-1.05.48-2.34,1.49-3.91,2.39-.78.45-1.54.85-2.24,1.19l-.52.25a1.28,1.28,0,0,1-.59.16.48.48,0,0,1-.34-.18.53.53,0,0,1-.09-.33,3.26,3.26,0,0,1,.1-.49,3,3,0,0,1,.73-1.23c.25-.23.42-.32.43-.3a4.44,4.44,0,0,0-.89,1.6,2.22,2.22,0,0,0-.06.43c0,.13,0,.16.14.17a3.59,3.59,0,0,0,.93-.4c.68-.36,1.43-.76,2.2-1.21a40.37,40.37,0,0,1,4-2.31A3.68,3.68,0,0,1,132.48,173.25Z"/><path class="f" d="M131.29,172.32a15.83,15.83,0,0,1-3.34,2.53,10.24,10.24,0,0,1-3.86,1.62c0-.11,1.72-.74,3.66-2A34.61,34.61,0,0,1,131.29,172.32Z"/><path class="f" d="M119.4,179.85a11.72,11.72,0,0,0,1.74-1.4c.82-.92,1.36-1.82,1.47-1.75a4.48,4.48,0,0,1-1.17,2A2.81,2.81,0,0,1,119.4,179.85Z"/><path class="f" d="M120.69,180a16.12,16.12,0,0,1,2-1.15c1.24-.69,3-1.64,4.81-2.76a12.08,12.08,0,0,1,2.77-1.37,10.36,10.36,0,0,1,2.51-.37,16.32,16.32,0,0,1,1.69,0,2,2,0,0,1,.62.08,20.63,20.63,0,0,1-2.3.16,10.75,10.75,0,0,0-2.41.44,13,13,0,0,0-2.68,1.36c-1.86,1.12-3.6,2-4.89,2.67A10.91,10.91,0,0,1,120.69,180Z"/><path class="f" d="M118,182.33c-.1,0-.19-.43-.2-1a1.53,1.53,0,0,1,.13-.75c.22-.23.41-.05.36,0s-.12.08-.12.17,0,.35,0,.6C118.24,181.9,118.15,182.33,118,182.33Z"/><path class="f" d="M118,184a2.24,2.24,0,0,1,.34-.75,6.37,6.37,0,0,1,1.49-1.66,16.26,16.26,0,0,1,2.86-1.64l3.59-1.77c1.27-.63,2.48-1.24,3.66-1.69a7.74,7.74,0,0,1,1.74-.34l1.52-.17,2.19-.21a2.78,2.78,0,0,1,.81,0,3,3,0,0,1-.79.18l-2.18.34-1.51.22a7.9,7.9,0,0,0-1.67.35c-1.11.46-2.32,1.08-3.6,1.7l-3.6,1.75a19.32,19.32,0,0,0-2.85,1.53A9,9,0,0,0,118,184Z"/><path class="f" d="M126,178.25a5.58,5.58,0,0,1,1.19-.91c.77-.51,1.8-1.24,3-2a5.36,5.36,0,0,1,3.61-.47,4.07,4.07,0,0,1,1.45.43,9.16,9.16,0,0,1-1.48-.16,5.76,5.76,0,0,0-3.39.55A38,38,0,0,1,126,178.25Z"/><path class="f" d="M118.65,181.91s.29-.33.88-.71a25,25,0,0,1,2.42-1.3c1-.46,1.8-.9,2.39-1.26a4.76,4.76,0,0,1,1-.57s-.25.37-.82.8a14.87,14.87,0,0,1-2.37,1.39l-2.45,1.18A4,4,0,0,1,118.65,181.91Z"/><path class="f" d="M115.6,180.53c-.11,0-.18-.48.17-.91s.82-.48.84-.38-.27.3-.53.63S115.71,180.53,115.6,180.53Z"/><path class="f" d="M116.74,186s-.32-.14-.6-.57a3.68,3.68,0,0,1-.53-1.92,6.08,6.08,0,0,1,.26-2c.2-.51.54-.66.56-.62s-.19.25-.29.71a9.62,9.62,0,0,0-.13,1.86,4.47,4.47,0,0,0,.37,1.79C116.58,185.68,116.78,185.92,116.74,186Z"/><path class="f" d="M117.35,185.58a2.09,2.09,0,0,1-.35-1.53,1.79,1.79,0,0,1,.44-1.06c.21-.22.39-.28.42-.24s-.42.55-.47,1.34S117.48,185.56,117.35,185.58Z"/><path class="f" d="M126.17,179.35a7.07,7.07,0,0,1,1.41-.85,10.67,10.67,0,0,1,1.66-.72,13.94,13.94,0,0,1,2.2-.2c1.54-.08,2.93-.13,3.95-.15a7.4,7.4,0,0,1,1.64.06,6.22,6.22,0,0,1-1.63.22c-1,.09-2.4.19-3.94.26a16.89,16.89,0,0,0-2.14.17,14.65,14.65,0,0,0-1.62.61A6.36,6.36,0,0,1,126.17,179.35Z"/><path class="f" d="M118.44,184.91a2.85,2.85,0,0,1,.64-1.16,10.35,10.35,0,0,1,2.36-2.16,19.71,19.71,0,0,1,2.79-1.54,4.15,4.15,0,0,1,1.24-.47c.06.13-1.76,1-3.8,2.34a12.87,12.87,0,0,0-2.37,2A11.08,11.08,0,0,1,118.44,184.91Z"/><path class="f" d="M120.67,183.89a15,15,0,0,1,2.08-1.52,22.72,22.72,0,0,1,5.45-3,15.48,15.48,0,0,1,6.22-.47c.79.08,1.43.18,1.87.26a2.1,2.1,0,0,1,.67.18c0,.06-1-.06-2.56-.16a17,17,0,0,0-6.08.57,26.46,26.46,0,0,0-5.42,2.9A17.86,17.86,0,0,1,120.67,183.89Z"/><path class="f" d="M137.31,176.84a17.25,17.25,0,0,1-2.77.23,19.43,19.43,0,0,1-2.78.2,6.91,6.91,0,0,1,2.74-.6A7,7,0,0,1,137.31,176.84Z"/><path class="f" d="M129.38,180.4a2.08,2.08,0,0,1,1.24-.43,24.23,24.23,0,0,1,3.14-.11,14.58,14.58,0,0,1,4.41.57c0,.11-2-.12-4.42-.18-1.21,0-2.32,0-3.1,0S129.4,180.45,129.38,180.4Z"/><path class="f" d="M139.52,190.19c-.08,0,.18-1,.1-2.51a7.16,7.16,0,0,0-.64-2.6,6.26,6.26,0,0,0-2.07-2.49,7.33,7.33,0,0,0-3.07-1.11,19.63,19.63,0,0,0-2.71-.27c-1.56-.05-2.52.14-2.53.07a2.21,2.21,0,0,1,.66-.18,12.4,12.4,0,0,1,1.87-.18,16.83,16.83,0,0,1,2.77.2,7.22,7.22,0,0,1,3.23,1.15,6.39,6.39,0,0,1,2.18,2.66,7.06,7.06,0,0,1,.59,2.74,8.63,8.63,0,0,1-.18,1.87A1.9,1.9,0,0,1,139.52,190.19Z"/><path class="f" d="M139.34,187.76a8.11,8.11,0,0,1-.84-1.22c-.25-.37-.56-.82-.92-1.29a8,8,0,0,0-1.27-1.42,6.85,6.85,0,0,0-3.19-1.23,6.68,6.68,0,0,1-1.45-.27,4.46,4.46,0,0,1,1.48,0,6.29,6.29,0,0,1,3.41,1.19,7.52,7.52,0,0,1,1.32,1.51,15.25,15.25,0,0,1,.86,1.37A4.39,4.39,0,0,1,139.34,187.76Z"/><path class="f" d="M136.72,199.24a18.17,18.17,0,0,0,1.94-5.69,17.72,17.72,0,0,0-.51-6,5.1,5.1,0,0,1,.64,1.69,12,12,0,0,1-1,8.51A5,5,0,0,1,136.72,199.24Z"/><path class="f" d="M139.34,190.25c-.1,0-.23-.43-.29-1s0-1,.11-1,.24.44.29,1S139.45,190.24,139.34,190.25Z"/><path class="f" d="M119.14,186.64c-.06-.1,2.06-1.42,4.56-3.19a32.33,32.33,0,0,1,3.28-2.2,3.68,3.68,0,0,1,1.56-.54c0,.06-.57.26-1.42.79s-1.92,1.39-3.19,2.28-2.44,1.63-3.32,2.13A6.75,6.75,0,0,1,119.14,186.64Z"/><path class="f" d="M117.74,186.23s0-.27.28-.55a3.93,3.93,0,0,1,1.24-.76,5.38,5.38,0,0,1,1.9-.66,5.09,5.09,0,0,1-1.73,1,8.24,8.24,0,0,0-1.23.61C117.92,186.08,117.79,186.26,117.74,186.23Z"/><path class="f" d="M137,190a7.68,7.68,0,0,0-1.14-3.26,8.63,8.63,0,0,0-2.7-2.59,7.16,7.16,0,0,0-2-.89,5.57,5.57,0,0,0-2.34-.05,16,16,0,0,0-4.37,1.53c-1.3.62-2.44,1.25-3.42,1.74l-2.31,1.16a4.55,4.55,0,0,1-.88.38,5,5,0,0,1,.8-.51l2.26-1.28c1-.52,2.09-1.17,3.39-1.82a15.61,15.61,0,0,1,4.47-1.59,5.85,5.85,0,0,1,2.5.06,7.82,7.82,0,0,1,2.11,1,8.52,8.52,0,0,1,2.74,2.75A6.34,6.34,0,0,1,137,189a5.28,5.28,0,0,1,0,.72A.75.75,0,0,1,137,190Z"/><path class="f" d="M136.8,194.45a9.76,9.76,0,0,0,.86-1.65,8.86,8.86,0,0,0,.18-4.44,5.77,5.77,0,0,0-2.18-3.74,17.84,17.84,0,0,0-1.58-1s.19,0,.5.12a4.94,4.94,0,0,1,1.25.66,5.65,5.65,0,0,1,1.48,1.49,6,6,0,0,1,.92,2.41,8.39,8.39,0,0,1-.3,4.6,4.24,4.24,0,0,1-.74,1.2C137,194.35,136.82,194.46,136.8,194.45Z"/><path class="f" d="M136.77,193.48c-.06,0,.11-.64.1-1.65a7.66,7.66,0,0,0-1-3.74,9.12,9.12,0,0,0-2.65-2.85c-.83-.58-1.41-.84-1.39-.9a4.13,4.13,0,0,1,1.54.66,8.22,8.22,0,0,1,2.85,2.9,7.07,7.07,0,0,1,.94,3.94A3.59,3.59,0,0,1,136.77,193.48Z"/><path class="f" d="M136.59,192.38a11.38,11.38,0,0,0-3.26-2.75,14.4,14.4,0,0,0-4.12-1.19,6.69,6.69,0,0,1,4.3.84,7.62,7.62,0,0,1,2.44,2A2.73,2.73,0,0,1,136.59,192.38Z"/><path class="f" d="M136.68,197.43a5.35,5.35,0,0,1-.41-2,5.24,5.24,0,0,1,0-2,10.42,10.42,0,0,1,.43,4Z"/><path class="f" d="M136.62,196.61a9.28,9.28,0,0,0,.72-1.36c.3-.83.63-1.48.73-1.44a3.36,3.36,0,0,1-.36,1.58,2.53,2.53,0,0,1-.63,1C136.84,196.61,136.65,196.66,136.62,196.61Z"/><path class="f" d="M132.31,186.81a6.88,6.88,0,0,0-1.92-1.18,8.26,8.26,0,0,0-5.34.08,28,28,0,0,0-5,2.21,14.19,14.19,0,0,1-2.06,1,13.28,13.28,0,0,1,1.92-1.28,23.16,23.16,0,0,1,5.07-2.34,8,8,0,0,1,5.56,0,4.63,4.63,0,0,1,1.43.94A1.67,1.67,0,0,1,132.31,186.81Z"/><path class="f" d="M132.39,188.32c0,.06-.6-.41-1.65-.89a9.82,9.82,0,0,0-4.36-.91,9,9,0,0,0-4.26,1.24,7.26,7.26,0,0,1-1.71.82,11.69,11.69,0,0,1,1.57-1.07,8.47,8.47,0,0,1,4.39-1.39,9.07,9.07,0,0,1,4.49,1.06A7.36,7.36,0,0,1,132,188C132.28,188.17,132.41,188.3,132.39,188.32Z"/><path class="f" d="M126.3,184a5.9,5.9,0,0,1,1.83-.13,6.57,6.57,0,0,1,2,.36,6.86,6.86,0,0,1,2.07,1.36,14.43,14.43,0,0,1,3,3.28,4.22,4.22,0,0,1,.72,1.69c-.06,0-.31-.63-.95-1.54a17.79,17.79,0,0,0-3-3.13,5.69,5.69,0,0,0-3.82-1.74A14.09,14.09,0,0,1,126.3,184Z"/><path class="f" d="M129,183.58c0-.1.46-.31,1.08-.17s1,.54.9.62-.47-.13-1-.24S129.07,183.69,129,183.58Z"/><path class="f" d="M124.81,184.14a4.33,4.33,0,0,1,2.56-1.9,4.71,4.71,0,0,1,3.18-.16,16.4,16.4,0,0,0-3.05.54A12.21,12.21,0,0,0,124.81,184.14Z"/><path class="f" d="M131.11,189.46c0-.05.31-.08.77.06a5.46,5.46,0,0,1,1.57.91,13.77,13.77,0,0,1,1.39,1.14c.34.35.39.69.33.69s-.17-.22-.52-.48-.89-.61-1.44-1a8.7,8.7,0,0,0-1.44-1C131.38,189.59,131.11,189.52,131.11,189.46Z"/><path class="f" d="M122.39,189.24a5.34,5.34,0,0,1,2.82-1.09,5.45,5.45,0,0,1,3,.2c0,.12-1.35-.06-3,.19S122.44,189.35,122.39,189.24Z"/><path class="f" d="M126.23,185.77a2,2,0,0,1,1.34-.3,9,9,0,0,1,3.2.81,8.07,8.07,0,0,1,2.76,1.83,2.44,2.44,0,0,1,.72,1.16c-.05,0-.32-.41-.92-1a9.83,9.83,0,0,0-2.72-1.66,11.37,11.37,0,0,0-3.06-.89A11,11,0,0,0,126.23,185.77Z"/><path class="f" d="M139.06,183.64c-.11,0-.18-.71-.64-1.42s-1-1.15-.95-1.25.79.22,1.29,1S139.17,183.66,139.06,183.64Z"/><path class="f" d="M138.69,180.86c-.05,0-.22-.36-.68-.82a4.88,4.88,0,0,0-2.18-1.22,9.28,9.28,0,0,0-2.54-.3c-.65,0-1,.12-1.07.07s1.65-.72,3.72-.16a4.46,4.46,0,0,1,2.28,1.42C138.66,180.41,138.74,180.85,138.69,180.86Z"/><path class="f" d="M130,171.39c-.05.1-.52,0-1.11-.18s-1.07-.19-1.08-.3.53-.23,1.17-.08S130.05,171.3,130,171.39Z"/><path class="f" d="M131.13,171.67a2.06,2.06,0,0,1,1.08.11,8,8,0,0,1,2.32,1.19c.41.3.79.59,1.13.87a2.13,2.13,0,0,1,.75,1,.9.9,0,0,1-.13.84c-.13.16-.25.17-.26.15a.91.91,0,0,0,.13-.9c-.23-.52-1.07-1-1.85-1.59a10.49,10.49,0,0,0-2.18-1.25C131.52,171.81,131.12,171.74,131.13,171.67Z"/><path class="f" d="M121.83,184c0-.06.36-.19.91-.5s1.27-.83,2.1-1.36a16,16,0,0,1,3.09-1.77,16.36,16.36,0,0,1-2.88,2.1,16.75,16.75,0,0,1-2.19,1.28A2,2,0,0,1,121.83,184Z"/><path class="f" d="M120,184.38c-.1,0,.18-.9,1-1.64a2.74,2.74,0,0,1,1.66-.92c0,.11-.67.51-1.39,1.21S120.13,184.43,120,184.38Z"/><path class="f" d="M117.15,188.07c0-.06.15-.17.35-.39a7.65,7.65,0,0,0,.68-1,2.55,2.55,0,0,1,.94-.94c.32-.15.55-.12.56-.07s-.18.13-.41.31a3.33,3.33,0,0,0-.75.91,3.6,3.6,0,0,1-.84,1C117.39,188.09,117.17,188.11,117.15,188.07Z"/><path class="f" d="M135.89,189.82c-.07,0-.11-.32-.3-.81a6,6,0,0,0-1.08-1.72c-1.08-1.2-2.21-2-2.13-2.07a6.2,6.2,0,0,1,2.43,1.8,4.93,4.93,0,0,1,1.05,1.9C136,189.47,135.93,189.83,135.89,189.82Z"/><path class="f" d="M128.35,191.63s.37-.06.88.21a5.68,5.68,0,0,1,1.58,1.49,5,5,0,0,0,1.5,1.35c.46.24.8.26.8.32s-.36.14-.91-.06a4.13,4.13,0,0,1-1.7-1.36,8,8,0,0,0-1.42-1.5C128.66,191.78,128.33,191.69,128.35,191.63Z"/><path class="f" d="M123.39,195.25s.23-.27.74-.49a2.39,2.39,0,0,1,1-.17,3.41,3.41,0,0,1,1.17.32,2.77,2.77,0,0,1,1.59,1.45c.19.58,0,.93-.08.9s0-.35-.18-.79a2.87,2.87,0,0,0-1.5-1.2C124.66,194.48,123.43,195.42,123.39,195.25Z"/><path class="f" d="M117.78,197.59s-.21-.22-.33-.68a3.5,3.5,0,0,1,0-1.81,2.89,2.89,0,0,1,1.52-2,8.71,8.71,0,0,0-1.14,2.11A7.94,7.94,0,0,0,117.78,197.59Z"/><path class="f" d="M117.11,194.87c-.1,0-.31-.62-.28-1.43s.3-1.44.4-1.41,0,.65,0,1.42S117.22,194.85,117.11,194.87Z"/><path class="f" d="M129.66,191a5,5,0,0,1,2.89.81,4.82,4.82,0,0,1,2.17,2.07,26.33,26.33,0,0,0-2.36-1.72C131,191.31,129.64,191.07,129.66,191Z"/><path class="f" d="M128.13,181.39s.23,0,.6.05a12.72,12.72,0,0,1,1.46.1,5.63,5.63,0,0,1,2.05.41,5.6,5.6,0,0,1-2.09,0,12.44,12.44,0,0,1-1.46-.22C128.29,181.63,128.09,181.43,128.13,181.39Z"/><path class="f" d="M129.48,180.77s-.09.17-.31.09a.54.54,0,0,1-.29-.72.83.83,0,0,1,.55-.44c.17,0,.27,0,.29,0s-.34.32-.48.58a.32.32,0,0,0,.07.32C129.37,180.7,129.46,180.72,129.48,180.77Z"/><path class="f" d="M138.07,182.2a13.23,13.23,0,0,0-1.7-1c-1-.41-1.92-.34-1.93-.46a2.54,2.54,0,0,1,2.08.09C137.65,181.25,138.17,182.16,138.07,182.2Z"/><path class="f" d="M134.83,173.8c-.05.1-.67-.11-1.45-.09s-1.38.25-1.44.15.55-.53,1.44-.54S134.89,173.71,134.83,173.8Z"/><path class="f" d="M119.07,181.31c-.1,0-.31-.74.14-1.56s1.17-1.11,1.21-1-.49.49-.86,1.19S119.19,181.3,119.07,181.31Z"/><path class="f" d="M115.81,184.61s.12-.32.4-.76a8.93,8.93,0,0,0,.92-1.79c.23-.71.21-1.47.38-2s.41-.79.45-.76-.11.32-.17.82a12.74,12.74,0,0,1-.29,2.07,5.82,5.82,0,0,1-1.06,1.82C116.09,184.42,115.85,184.65,115.81,184.61Z"/><path class="f" d="M121.48,201.34s-.21.24-.35.66a1.3,1.3,0,0,0,.5,1.47,3,3,0,0,0,1.68.47c.48,0,.79,0,.79.07s-.28.15-.78.21a2.81,2.81,0,0,1-1.93-.43,1.54,1.54,0,0,1-.52-1.9C121.12,201.41,121.46,201.3,121.48,201.34Z"/><path class="f" d="M122.72,201.24c.08.08-.76.61-.79,1.62,0,.48.39.68.66.51a1.33,1.33,0,0,1,.41-.16c.12,0,.18,0,.18,0s-.17.09-.45.35a.7.7,0,0,1-.76.07.89.89,0,0,1-.43-.82,1.79,1.79,0,0,1,.63-1.35C122.46,201.25,122.7,201.2,122.72,201.24Z"/><path class="f" d="M120.87,203.8c-.06.08-.65-.39-.81-1.27s.25-1.53.34-1.47-.09.66,0,1.4S121,203.73,120.87,203.8Z"/></g></g><path class="b" d="M171.53,189.16q4.84,0,6.34-4t1.5-13.33V116.11q0-9.27-1.5-13.33t-6.34-4v-.65h38q11.1,0,18.16,2a19.37,19.37,0,0,1,10.85,7.39q3.78,5.36,3.79,15.16,0,11.23-8.1,18.16t-23.53,6.92a34.63,34.63,0,0,1-14.7-2.94q-6.33-2.94-8.82-11.56v38.55q0,9.27,1.51,13.33t6.33,4v.65H171.53ZM190.74,138a16.49,16.49,0,0,0,8.63,6.79,38.44,38.44,0,0,0,11.76,1.64q10.32,0,15.55-6.8t5.22-17q0-12.95-5.88-18.1t-16.85-5.16h-22v23.39Q187.21,132.83,190.74,138Z"/><path class="b" d="M290.57,189.16c3.4,0,5.1-1.75,5.1-5.23q0-3.66-2.74-12.15l-7.58-23.92H254.9l-8.36,23.92q-3.27,9.15-3.27,12.67a4.76,4.76,0,0,0,1.18,3.53,5.2,5.2,0,0,0,3.79,1.18v.65h-17v-.65a8.83,8.83,0,0,0,7.12-3.4q2.81-3.4,5.69-10.85l25.35-72.13a9,9,0,0,0-7.45-4v-.65h15.81l23.91,75.4q2.74,8.36,5.49,12a8.7,8.7,0,0,0,7.32,3.66v.65H290.57ZM285,146.56l-10.2-32.15a63.42,63.42,0,0,0-4.31-10.32l-15,42.47Z"/><path class="b" d="M328.6,189.16q4.83,0,6.34-4t1.5-13.33V116.11q0-7.32-1.37-10.91a7.7,7.7,0,0,0-4.05-4.7,20.75,20.75,0,0,0-7.65-1.11H321a20.66,20.66,0,0,0-7.64,1.11,7.64,7.64,0,0,0-4.05,4.7Q308,108.8,308,116.11h-.65v-18h66.12v18h-.65q0-7.32-1.38-10.91a7.64,7.64,0,0,0-4.05-4.7,20.66,20.66,0,0,0-7.64-1.11h-2.35a20.72,20.72,0,0,0-7.65,1.11,7.7,7.7,0,0,0-4.05,4.7q-1.36,3.6-1.37,10.91v55.67q0,7.32,1.37,11a8.45,8.45,0,0,0,4.12,5,18,18,0,0,0,7.58,1.31v.65H328.6Z"/><path class="b" d="M598.38,189.16q4.83,0,6.33-4t1.51-13.33V116.11q0-9.27-1.51-13.33t-6.33-4v-.65h65.85v18h-.65q0-7.32-1.37-10.91a7.7,7.7,0,0,0-4.05-4.7,20.75,20.75,0,0,0-7.65-1.11H627.12a20.66,20.66,0,0,0-7.64,1.11,7.64,7.64,0,0,0-4.05,4.7q-1.38,3.6-1.37,10.91v30.45H641.5a20.66,20.66,0,0,0,7.64-1.11,7.63,7.63,0,0,0,4.05-4.71q1.38-3.59,1.37-10.91h.66v34.76h-.66q0-7.32-1.37-10.91a7.61,7.61,0,0,0-4.05-4.7,20.63,20.63,0,0,0-7.64-1.12H614.06v23.92q0,7.32,1.37,10.91a7.61,7.61,0,0,0,4.05,4.7,20.66,20.66,0,0,0,7.64,1.11H653a20.69,20.69,0,0,0,7.64-1.11,7.61,7.61,0,0,0,4.05-4.7q1.38-3.6,1.37-10.91h.66v18H598.38Z"/><path class="b" d="M730.09,189.16q4,0,4-3.14T730,175.3l-35.41-59.19h-.13q-5.88-9.8-9.41-13.33v69q0,9.27,1.5,13.33c1,2.7,3.12,4,6.34,4v.65h-17v-.65c3.22,0,5.34-1.35,6.34-4s1.5-7.15,1.5-13.33V101.61a12.44,12.44,0,0,0-7.84-2.88v-.65h25.48v.65q-3.92,0-3.92,3.27t4.18,10.84l35.28,58.94H737q5.22,9,8.49,12.54V116.11q0-9.27-1.5-13.33t-6.34-4v-.65h17v.65q-4.85,0-6.34,4t-1.5,13.33v69.52q3.78,3.52,7.84,3.53v.65H730.09Z"/><path class="b" d="M781.18,189.16c3.22,0,5.34-1.35,6.34-4S789,178,789,171.78V116.11q0-7.32-1.37-10.91a7.7,7.7,0,0,0-4-4.7A20.75,20.75,0,0,0,776,99.39H773.6A20.66,20.66,0,0,0,766,100.5a7.64,7.64,0,0,0-4.05,4.7q-1.38,3.6-1.38,10.91h-.65v-18H826v18h-.65q0-7.32-1.38-10.91a7.64,7.64,0,0,0-4.05-4.7,20.66,20.66,0,0,0-7.64-1.11h-2.35a20.75,20.75,0,0,0-7.65,1.11,7.7,7.7,0,0,0-4,4.7q-1.37,3.6-1.37,10.91v55.67q0,7.32,1.37,11a8.45,8.45,0,0,0,4.12,5,18,18,0,0,0,7.58,1.31v.65H781.18Z"/><path class="c" d="M455,156.28a37.5,37.5,0,0,0-8.32-7.31,94.74,94.74,0,0,0-11.5-6.46,125.93,125.93,0,0,1-12.41-6.77,43.9,43.9,0,0,1-10.16-8.55,19.17,19.17,0,0,1-4.67-12.9A14.42,14.42,0,0,1,413.76,103c3.18-2.13,8.13-4.12,15.59-4.12,15,0,18.74,9.07,19.12,10.13.12.46.22.92.3,1.39a13.69,13.69,0,0,1-2.87,10.53,9.91,9.91,0,0,0,2.74-2A7.28,7.28,0,0,0,450.8,114a8.51,8.51,0,0,0-1.53-5.09h0s-5-10.43-20.05-10.82a35.32,35.32,0,0,0-14.71,2.74v0C403.18,105.3,401,112.36,401,112.36v0a23.11,23.11,0,0,0-1.53,8.83,15.61,15.61,0,0,0,2.87,9.65,33.47,33.47,0,0,0,8,7.68,76.12,76.12,0,0,0,11.2,6.3,122,122,0,0,1,12.23,6.48,46.62,46.62,0,0,1,9.89,8,17.85,17.85,0,0,1,4.77,12.52,28.05,28.05,0,0,1-.41,4.92A14.39,14.39,0,0,1,439.24,187a40.09,40.09,0,0,1-22.46,1.64l-1.77-.44-.35-.09-.46-.13-1.54-.48a17.37,17.37,0,0,1-9.46-7.79,19.85,19.85,0,0,1-1.67-4.44,18.73,18.73,0,0,1,1.87-13.87c.16-.28.32-.56.49-.84a13.67,13.67,0,0,0-3.08,1.55,11.93,11.93,0,0,0-4,4.6,14.11,14.11,0,0,0-1.45,6.49,13.47,13.47,0,0,0,.3,2.82h0a11.58,11.58,0,0,0,4.37,6.72v0c.27.22.56.43.86.64l.14.1c.14.1.3.18.45.28l.51.31c.37.22.76.43,1.16.64a53.05,53.05,0,0,0,9.41,3.52h.06a45.35,45.35,0,0,0,32.18-3.15l.08,0a23.09,23.09,0,0,0,7.74-5.84,20.51,20.51,0,0,0,4-7.51,28.59,28.59,0,0,0,1.14-7.25A12.38,12.38,0,0,0,455,156.28Z"/><path class="c" d="M574.87,103.05a5.79,5.79,0,0,1-.25-.93,7.86,7.86,0,0,1-.39-1l-.06-.09c-.37-.56-.57-.85-.67-1a7.22,7.22,0,0,0-2.44-1.57,7.7,7.7,0,0,0-2.35-.38,8.06,8.06,0,0,0-1.73.2,18.76,18.76,0,0,0-5.05,2l-.26.16a.83.83,0,0,1,.08.12c1.4,2,2,5.3,2,11.27V184.9a12.06,12.06,0,0,1-1.05,5h13.52a12.05,12.05,0,0,1-1-5V105.65A14.62,14.62,0,0,0,574.87,103.05Z"/><path class="c" d="M541.34,164.36a14.88,14.88,0,0,0-5.85-1.89,10.48,10.48,0,0,1,2.33,5.61,17.26,17.26,0,0,1-1.82,9.83,22.81,22.81,0,0,1-7.19,8.24,18.91,18.91,0,0,1-6.36,2.67c-12.17,2.66-20-1.34-24.81-5.87a30.38,30.38,0,0,1-3.92-6.49,56,56,0,0,1-4.2-15.84,133.4,133.4,0,0,1,0-33.25,55.79,55.79,0,0,1,4.2-15.83,30.2,30.2,0,0,1,3.92-6.5c4.78-4.53,12.64-8.53,24.81-5.87a19.11,19.11,0,0,1,6.36,2.67,23,23,0,0,1,7.19,8.24,17.27,17.27,0,0,1,1.82,9.84,10.45,10.45,0,0,1-2.33,5.6,14.56,14.56,0,0,0,5.85-1.89,9.26,9.26,0,0,0,4.25-4.9,9.47,9.47,0,0,0-.34-6.36,17.19,17.19,0,0,0-4.81-6.78,24.61,24.61,0,0,0-5.32-3.59h0a38.12,38.12,0,0,0-4.06-1.77,37.61,37.61,0,0,0-8.77-1.66c-8.72-1.16-20.58-.48-31.39,7.73l-.39.29-.32.24,0,0a35,35,0,0,0-4.41,4.1,38.73,38.73,0,0,0-7.9,13.85,55.9,55.9,0,0,0-2.7,17.49c0,.57,0,1.13,0,1.69s0,1.12,0,1.68a55.85,55.85,0,0,0,2.7,17.49,38.86,38.86,0,0,0,7.9,13.86,35,35,0,0,0,4.41,4.09l0,0a3.81,3.81,0,0,0,.32.24l.39.29c10.81,8.21,22.67,8.89,31.39,7.73a37.1,37.1,0,0,0,8.77-1.66,36.18,36.18,0,0,0,4.06-1.76h0a25.35,25.35,0,0,0,5.32-3.59,17.29,17.29,0,0,0,4.81-6.79,9.47,9.47,0,0,0,.34-6.36A9.33,9.33,0,0,0,541.34,164.36Z"/></svg>